<svg width="232" height="57" viewBox="0 0 232 57" fill="none" xmlns="http://www.w3.org/2000/svg">
<path fill-rule="evenodd" clip-rule="evenodd" d="M28.5 53.9995C42.583 53.9995 53.9995 42.583 53.9995 28.5C53.9995 14.417 42.583 3.00051 28.5 3.00051C14.417 3.00051 3.00051 14.417 3.00051 28.5C3.00051 42.583 14.417 53.9995 28.5 53.9995ZM28.5 56C43.6878 56 56 43.6878 56 28.5C56 13.3122 43.6878 1 28.5 1C13.3122 1 1 13.3122 1 28.5C1 43.6878 13.3122 56 28.5 56ZM38.5483 41.6959C42.5452 38.6839 45.1293 33.8971 45.1293 28.5068C45.1293 25.8136 44.4842 23.2711 43.3401 21.0253H43.6724C43.6947 21.0253 43.7128 21.0072 43.7128 20.9849C43.7128 20.9626 43.6947 20.9445 43.6724 20.9445H43.2987C42.063 18.5517 40.2593 16.5 38.0658 14.9676C38.1791 14.8672 38.2959 14.7649 38.4165 14.6607C38.4671 14.617 38.4726 14.5405 38.4289 14.4899C38.3851 14.4393 38.3086 14.4337 38.258 14.4775C38.1211 14.5959 37.9883 14.7121 37.8596 14.8259C35.2242 13.0435 32.0462 12.0026 28.625 12.0026C24.8752 12.0026 21.4175 13.2531 18.6462 15.3598C18.4954 15.2346 18.3406 15.1065 18.1816 14.9757C18.13 14.9332 18.0536 14.9406 18.0111 14.9923C17.9686 15.0439 17.976 15.1203 18.0277 15.1628C18.1724 15.2819 18.3128 15.3983 18.4489 15.5121C16.5866 16.9726 15.046 18.8247 13.9513 20.9445H13.6529C13.6306 20.9445 13.6125 20.9626 13.6125 20.9849C13.6125 21.0072 13.6306 21.0253 13.6529 21.0253H13.9099C12.7658 23.2711 12.1207 25.8136 12.1207 28.5068C12.1207 33.9699 14.775 38.813 18.8644 41.8169L18.6487 42.2874C18.6392 42.3076 18.6478 42.3317 18.668 42.3412C18.6882 42.3507 18.7122 42.342 18.7217 42.3218L18.926 41.862C21.6487 43.8427 25.0004 45.0111 28.625 45.0111C32.3207 45.0111 35.7327 43.7964 38.4835 41.7445L38.6739 42.1551C38.6834 42.1753 38.7074 42.1839 38.7276 42.1744C38.7478 42.1649 38.7564 42.1409 38.7469 42.1207L38.5483 41.6959ZM38.5483 41.6959L29.056 21.3944C28.9795 21.232 29.096 21.0444 29.2754 21.0369C29.3544 21.0336 29.4333 21.0297 29.5121 21.0253H43.3401C43.3264 20.9983 43.3126 20.9714 43.2987 20.9445H30.4493C33.4939 20.5921 33.6328 20.366 34.3169 19.2523C34.8188 18.4353 35.6141 17.1405 38.0658 14.9676C37.9975 14.9199 37.9287 14.8727 37.8596 14.8259C35.4743 16.9367 34.4829 18.2722 33.8461 19.1299C32.8282 20.5013 32.7169 20.6511 29.2653 20.7949C28.0945 20.8437 27.2837 20.9128 26.6641 20.9339C26.0373 20.8628 25.543 20.8099 25.1438 20.7601C24.0367 20.3317 23.029 19.0008 18.6462 15.3598C18.58 15.4101 18.5143 15.4609 18.4489 15.5121C22.3614 18.7835 22.7675 19.8794 23.5506 20.3563C23.8965 20.5669 24.316 20.6568 25.1438 20.7601C25.1948 20.7798 25.246 20.7976 25.2978 20.8137C25.6784 20.9316 26.0889 20.9535 26.6641 20.9339C26.6951 20.9374 26.7264 20.9409 26.758 20.9445H13.9513C13.9375 20.9714 13.9236 20.9983 13.9099 21.0253H27.7064C28.0268 21.0433 28.2359 21.3788 28.0991 21.6691L23.288 32.1657C23.202 32.288 23.1238 32.4222 23.0548 32.5687L21.5242 36.0139L18.8644 41.8169C18.8849 41.832 18.9054 41.847 18.926 41.862L21.5242 36.0139L23.288 32.1657C24.6191 30.2735 27.8167 31.2461 27.664 33.7483L26.9895 44.8018C26.9882 44.824 27.0051 44.8432 27.0274 44.8445C27.0496 44.8459 27.0688 44.829 27.0701 44.8067L28.5122 21.1723C28.5164 21.104 28.5733 21.0508 28.6418 21.0507C28.7106 21.0506 28.7678 21.104 28.7718 21.1728L30.1337 44.8066C30.135 44.8288 30.1541 44.8458 30.1764 44.8445C30.1986 44.8433 30.2156 44.8242 30.2143 44.8019L29.5709 33.6358C29.4176 30.976 33.0453 30.0541 34.1806 32.4644L38.4835 41.7445C38.5051 41.7283 38.5267 41.7122 38.5483 41.6959ZM28.625 45.7334C38.139 45.7334 45.8516 38.0208 45.8516 28.5068C45.8516 18.9929 38.139 11.2803 28.625 11.2803C19.111 11.2803 11.3984 18.9929 11.3984 28.5068C11.3984 38.0208 19.111 45.7334 28.625 45.7334Z" fill="#357337"/>
<path d="M38.4165 14.6607L37.8883 14.05L37.8883 14.05L38.4165 14.6607ZM38.4289 14.4899L37.8181 15.018L37.8181 15.018L38.4289 14.4899ZM38.258 14.4775L37.7299 13.8667L37.7299 13.8667L38.258 14.4775ZM18.1816 14.9757L18.6947 14.3523L18.6947 14.3523L18.1816 14.9757ZM18.0111 14.9923L18.6346 15.5054L18.6346 15.5054L18.0111 14.9923ZM18.0277 15.1628L17.5146 15.7862H17.5146L18.0277 15.1628ZM18.6487 42.2874L19.3792 42.6315L19.3827 42.6239L18.6487 42.2874ZM18.668 42.3412L19.0121 41.6107L19.012 41.6107L18.668 42.3412ZM18.7217 42.3218L19.4522 42.6659L19.456 42.6578L19.4596 42.6497L18.7217 42.3218ZM38.6739 42.1551L37.9413 42.4948L37.9434 42.4991L38.6739 42.1551ZM38.7276 42.1744L39.0716 42.9049L39.0717 42.9049L38.7276 42.1744ZM38.7469 42.1207L38.0155 42.4627L38.0164 42.4647L38.7469 42.1207ZM29.056 21.3944L29.7874 21.0524L29.7864 21.0504L29.056 21.3944ZM29.2754 21.0369L29.309 21.8436H29.309L29.2754 21.0369ZM29.5121 21.0253V20.2179H29.4892L29.4665 20.2191L29.5121 21.0253ZM30.4493 20.9445L30.3564 20.1425L30.4493 21.752V20.9445ZM34.3169 19.2523L35.0049 19.6749L34.3169 19.2523ZM33.8461 19.1299L34.4945 19.6112L33.8461 19.1299ZM29.2653 20.7949L29.2989 21.6016L29.2653 20.7949ZM23.5506 20.3563L23.1306 21.0459V21.0459L23.5506 20.3563ZM25.2978 20.8137L25.5368 20.0424L25.5368 20.0424L25.2978 20.8137ZM26.758 20.9445V21.752L26.8494 20.1423L26.758 20.9445ZM27.7064 21.0253L27.7516 20.2191L27.729 20.2179H27.7064V21.0253ZM28.0991 21.6691L27.3686 21.325L27.3651 21.3326L28.0991 21.6691ZM23.0548 32.5687L22.3243 32.2246L22.3205 32.2327L22.3169 32.2409L23.0548 32.5687ZM27.664 33.7483L28.4699 33.7975L27.664 33.7483ZM26.9895 44.8018L27.7955 44.851V44.851L26.9895 44.8018ZM27.0701 44.8067L27.8761 44.8559V44.8559L27.0701 44.8067ZM28.5122 21.1723L29.3182 21.2215L29.3182 21.2215L28.5122 21.1723ZM28.6418 21.0507L28.6403 20.2433H28.6402L28.6418 21.0507ZM28.7718 21.1728L29.5779 21.1263V21.1263L28.7718 21.1728ZM30.1337 44.8066L29.3276 44.853L29.3276 44.853L30.1337 44.8066ZM30.1764 44.8445L30.2228 45.6506L30.2228 45.6506L30.1764 44.8445ZM30.2143 44.8019L29.4082 44.8484L29.4082 44.8484L30.2143 44.8019ZM29.5709 33.6358L30.377 33.5894L29.5709 33.6358ZM34.1806 32.4644L34.9131 32.1247L34.911 32.1203L34.1806 32.4644ZM53.1921 28.5C53.1921 42.137 42.137 53.1921 28.5 53.1921V54.8069C43.0289 54.8069 54.8069 43.0289 54.8069 28.5H53.1921ZM28.5 3.80794C42.1371 3.80794 53.1921 14.863 53.1921 28.5H54.8069C54.8069 13.9711 43.0289 2.19307 28.5 2.19307V3.80794ZM3.80794 28.5C3.80794 14.863 14.863 3.80794 28.5 3.80794V2.19307C13.9711 2.19307 2.19307 13.9711 2.19307 28.5H3.80794ZM28.5 53.1921C14.863 53.1921 3.80794 42.1371 3.80794 28.5H2.19307C2.19307 43.0289 13.9711 54.8069 28.5 54.8069V53.1921ZM55.1926 28.5C55.1926 43.2419 43.2419 55.1926 28.5 55.1926V56.8074C44.1338 56.8074 56.8074 44.1338 56.8074 28.5H55.1926ZM28.5 1.80743C43.2419 1.80743 55.1926 13.7581 55.1926 28.5H56.8074C56.8074 12.8662 44.1338 0.192568 28.5 0.192568V1.80743ZM1.80743 28.5C1.80743 13.7581 13.7581 1.80743 28.5 1.80743V0.192568C12.8662 0.192568 0.192568 12.8662 0.192568 28.5H1.80743ZM28.5 55.1926C13.7581 55.1926 1.80743 43.2419 1.80743 28.5H0.192568C0.192568 44.1338 12.8662 56.8074 28.5 56.8074V55.1926ZM44.3219 28.5068C44.3219 33.6329 41.8656 38.1851 38.0624 41.0511L39.0342 42.3407C43.2249 39.1827 45.9367 34.1614 45.9367 28.5068H44.3219ZM42.6207 21.3918C43.7083 23.5267 44.3219 25.9439 44.3219 28.5068H45.9367C45.9367 25.6833 45.2601 23.0155 44.0596 20.6588L42.6207 21.3918ZM43.3401 21.8327H43.6724V20.2179H43.3401V21.8327ZM43.6724 21.8327C44.1406 21.8327 44.5202 21.4532 44.5202 20.9849H42.9053C42.9053 20.5612 43.2488 20.2179 43.6724 20.2179V21.8327ZM44.5202 20.9849C44.5202 20.5167 44.1406 20.1371 43.6724 20.1371V21.752C43.2487 21.752 42.9053 21.4086 42.9053 20.9849H44.5202ZM43.6724 20.1371H43.2987V21.752H43.6724V20.1371ZM37.6034 15.6296C39.6902 17.0874 41.4061 19.0394 42.5813 21.315L44.0161 20.5741C42.7199 18.0641 40.8283 15.9126 38.5282 14.3057L37.6034 15.6296ZM38.6014 15.5719C38.7122 15.4737 38.8265 15.3736 38.9446 15.2715L37.8883 14.05C37.7654 14.1563 37.6461 14.2607 37.5303 14.3634L38.6014 15.5719ZM38.9446 15.2715C39.3325 14.936 39.375 14.3497 39.0396 13.9618L37.8181 15.018C37.5702 14.7313 37.6016 14.2979 37.8883 14.05L38.9446 15.2715ZM39.0396 13.9618C38.7042 13.5738 38.1178 13.5313 37.7299 13.8667L38.7861 15.0883C38.4994 15.3362 38.066 15.3047 37.8181 15.018L39.0396 13.9618ZM37.7299 13.8667C37.5906 13.9871 37.4556 14.1053 37.3246 14.2212L38.3947 15.4306C38.5211 15.3188 38.6515 15.2047 38.7861 15.0883L37.7299 13.8667ZM28.625 12.81C31.8799 12.81 34.9012 13.7998 37.4073 15.4947L38.312 14.1571C35.5472 12.2872 32.2124 11.1951 28.625 11.1951V12.81ZM19.1348 16.0026C21.7705 13.999 25.0578 12.81 28.625 12.81V11.1951C24.6927 11.1951 21.0645 12.5072 18.1575 14.717L19.1348 16.0026ZM19.1621 14.7388C19.0104 14.6127 18.8546 14.4839 18.6947 14.3523L17.6685 15.5992C17.8265 15.7292 17.9804 15.8564 18.1302 15.9809L19.1621 14.7388ZM18.6947 14.3523C18.2987 14.0264 17.7136 14.0832 17.3877 14.4792L18.6346 15.5054C18.3937 15.798 17.9612 15.84 17.6685 15.5992L18.6947 14.3523ZM17.3877 14.4792C17.0618 14.8752 17.1186 15.4603 17.5146 15.7862L18.5408 14.5393C18.8334 14.7802 18.8755 15.2127 18.6346 15.5054L17.3877 14.4792ZM17.5146 15.7862C17.6578 15.904 17.7965 16.0191 17.931 16.1316L18.9668 14.8927C18.8291 14.7775 18.6871 14.6598 18.5408 14.5393L17.5146 15.7862ZM14.6688 21.315C15.7098 19.2991 17.1753 17.537 18.9472 16.1475L17.9507 14.8768C15.9978 16.4082 14.3822 18.3504 13.2339 20.5741L14.6688 21.315ZM13.9513 20.1371H13.6529V21.752H13.9513V20.1371ZM13.6529 20.1371C13.1847 20.1371 12.8051 20.5167 12.8051 20.9849H14.42C14.42 21.4086 14.0765 21.752 13.6529 21.752V20.1371ZM12.8051 20.9849C12.8051 21.4531 13.1847 21.8327 13.6529 21.8327V20.2179C14.0766 20.2179 14.42 20.5613 14.42 20.9849H12.8051ZM13.6529 21.8327H13.9099V20.2179H13.6529V21.8327ZM12.9282 28.5068C12.9282 25.9439 13.5418 23.5267 14.6294 21.3918L13.1905 20.6588C11.9899 23.0155 11.3133 25.6833 11.3133 28.5068H12.9282ZM19.3424 41.1662C15.4512 38.3079 12.9282 33.7021 12.9282 28.5068H11.3133C11.3133 34.2377 14.0988 39.3182 18.3863 42.4676L19.3424 41.1662ZM18.1304 41.4805L17.9147 41.951L19.3827 42.6239L19.5984 42.1533L18.1304 41.4805ZM17.9182 41.9434C17.7187 42.367 17.9003 42.8722 18.324 43.0717L19.012 41.6107C19.3953 41.7912 19.5596 42.2482 19.3792 42.6315L17.9182 41.9434ZM18.3239 43.0716C18.7475 43.2711 19.2527 43.0895 19.4522 42.6659L17.9913 41.9778C18.1718 41.5945 18.6289 41.4302 19.0121 41.6107L18.3239 43.0716ZM19.4596 42.6497L19.6639 42.1898L18.1881 41.5342L17.9838 41.994L19.4596 42.6497ZM28.625 44.2037C25.1767 44.2037 21.9903 43.0927 19.401 41.2091L18.451 42.5149C21.3071 44.5927 24.8241 45.8186 28.625 45.8186V44.2037ZM38.0007 41.0973C35.3846 43.0488 32.1408 44.2037 28.625 44.2037V45.8186C32.5006 45.8186 36.0808 44.5441 38.9663 42.3917L38.0007 41.0973ZM37.751 42.0841L37.9414 42.4948L39.4064 41.8155L39.216 41.4049L37.751 42.0841ZM37.9434 42.4991C38.1429 42.9228 38.648 43.1044 39.0716 42.9049L38.3836 41.444C38.7668 41.2635 39.2239 41.4278 39.4044 41.8111L37.9434 42.4991ZM39.0717 42.9049C39.4952 42.7054 39.6769 42.2004 39.4774 41.7767L38.0164 42.4647C37.836 42.0814 38.0004 41.6245 38.3835 41.444L39.0717 42.9049ZM39.4784 41.7787L39.2797 41.3539L37.8169 42.0379L38.0155 42.4627L39.4784 41.7787ZM39.2797 41.3539L29.7874 21.0524L28.3246 21.7364L37.8169 42.0379L39.2797 41.3539ZM29.7864 21.0504C29.9625 21.4241 29.6913 21.8277 29.309 21.8436L29.2418 20.2302C28.5007 20.2611 27.9965 21.0398 28.3255 21.7385L29.7864 21.0504ZM29.309 21.8436C29.392 21.8402 29.4749 21.8361 29.5577 21.8314L29.4665 20.2191C29.3916 20.2234 29.3168 20.2271 29.2418 20.2302L29.309 21.8436ZM29.5121 21.8327H43.3401V20.2179H29.5121V21.8327ZM42.5813 21.3151C42.5944 21.3405 42.6076 21.3661 42.6207 21.3918L44.0596 20.6588C44.0452 20.6306 44.0307 20.6023 44.0161 20.574L42.5813 21.3151ZM43.2987 20.1371H30.4493V21.752H43.2987V20.1371ZM30.5421 21.7466C32.0325 21.5741 32.9717 21.4211 33.617 21.1121C34.3602 20.7563 34.6744 20.2129 35.0049 19.6749L33.6289 18.8297C33.2752 19.4054 33.178 19.5319 32.9196 19.6556C32.5632 19.8263 31.9107 19.9626 30.3564 20.1425L30.5421 21.7466ZM35.0049 19.6749C35.474 18.9113 36.2206 17.6819 38.6014 15.5719L37.5303 14.3634C35.0077 16.5991 34.1636 17.9593 33.6289 18.8297L35.0049 19.6749ZM37.4073 15.4947C37.473 15.5392 37.5384 15.5841 37.6034 15.6295L38.5282 14.3057C38.4565 14.2556 38.3844 14.2061 38.312 14.1571L37.4073 15.4947ZM37.3246 14.2212C34.8849 16.3801 33.8563 17.7616 33.1978 18.6487L34.4945 19.6112C35.1094 18.7829 36.0637 17.4933 38.3947 15.4306L37.3246 14.2212ZM33.1978 18.6487C32.6653 19.366 32.5115 19.5403 32.1771 19.6697C31.7425 19.8377 31.0058 19.9142 29.2317 19.9882L29.2989 21.6016C30.9765 21.5317 32.0212 21.4614 32.7596 21.1758C33.5982 20.8514 34.009 20.2652 34.4945 19.6112L33.1978 18.6487ZM29.2317 19.9882C28.6382 20.0129 28.1364 20.0428 27.7089 20.0688C27.2772 20.0952 26.9329 20.1168 26.6367 20.1269L26.6916 21.7408C27.015 21.7298 27.3859 21.7064 27.8072 21.6807C28.2326 21.6548 28.7216 21.6257 29.2989 21.6016L29.2317 19.9882ZM25.0438 21.5613C25.449 21.6118 25.9542 21.666 26.5731 21.7362L26.7551 20.1316C26.1204 20.0596 25.6371 20.0079 25.2437 19.9588L25.0438 21.5613ZM25.4351 20.007C25.0464 19.8566 24.6306 19.5318 23.6625 18.6636C22.7289 17.8263 21.3681 16.5713 19.1621 14.7388L18.1302 15.9809C20.3071 17.7893 21.6415 19.0203 22.5843 19.8658C23.4926 20.6803 24.1341 21.2351 24.8524 21.5131L25.4351 20.007ZM18.9472 16.1475C19.0093 16.0988 19.0719 16.0505 19.1348 16.0026L18.1575 14.717C18.0882 14.7698 18.0192 14.823 17.9507 14.8768L18.9472 16.1475ZM17.931 16.1316C19.8612 17.7455 20.9161 18.8138 21.5812 19.5311C21.8888 19.8628 22.1867 20.202 22.3872 20.4136C22.6121 20.6509 22.8427 20.8706 23.1306 21.0459L23.9706 19.6667C23.8669 19.6035 23.7532 19.5074 23.5594 19.3029C23.3412 19.0726 23.1463 18.8439 22.7654 18.4331C22.0535 17.6654 20.9491 16.5501 18.9668 14.8927L17.931 16.1316ZM23.1306 21.0459C23.6436 21.3583 24.2293 21.4597 25.0438 21.5613L25.2437 19.9588C24.4027 19.8539 24.1495 19.7756 23.9706 19.6667L23.1306 21.0459ZM25.5368 20.0424C25.5028 20.0319 25.469 20.0202 25.4352 20.0071L24.8524 21.5131C24.9206 21.5395 24.9893 21.5634 25.0588 21.5849L25.5368 20.0424ZM26.6367 20.1269C26.084 20.1457 25.7843 20.1191 25.5368 20.0424L25.0588 21.5849C25.5726 21.7441 26.0937 21.7612 26.6916 21.7408L26.6367 20.1269ZM26.5732 21.7362C26.604 21.7397 26.6351 21.7432 26.6665 21.7468L26.8494 20.1423C26.8176 20.1387 26.7862 20.1351 26.7551 20.1316L26.5732 21.7362ZM26.758 20.1371H13.9513V21.752H26.758V20.1371ZM14.6294 21.3918C14.6424 21.3662 14.6556 21.3406 14.6687 21.315L13.2339 20.5741C13.2194 20.6023 13.2049 20.6305 13.1905 20.6588L14.6294 21.3918ZM13.9099 21.8327H27.7064V20.2179H13.9099V21.8327ZM27.6611 21.8315C27.4366 21.8188 27.2502 21.5765 27.3687 21.325L28.8296 22.0131C29.2215 21.181 28.617 20.2677 27.7516 20.2191L27.6611 21.8315ZM27.3651 21.3326L22.554 31.8293L24.022 32.5022L28.8331 22.0055L27.3651 21.3326ZM23.7852 32.9127C23.835 32.8071 23.8899 32.7134 23.9484 32.6303L22.6276 31.7012C22.514 31.8626 22.4126 32.0372 22.3243 32.2246L23.7852 32.9127ZM22.2621 36.3417L23.7927 32.8965L22.3169 32.2409L20.7863 35.6861L22.2621 36.3417ZM20.7902 35.6775L18.1304 41.4805L19.5984 42.1533L22.2582 36.3503L20.7902 35.6775ZM19.4011 41.2091C19.3814 41.1948 19.3618 41.1805 19.3424 41.1662L18.3863 42.4676C18.4079 42.4835 18.4295 42.4992 18.451 42.5149L19.4011 41.2091ZM19.6639 42.1898L22.2621 36.3417L20.7863 35.6861L18.1881 41.5342L19.6639 42.1898ZM22.554 31.8293L20.7902 35.6775L22.2582 36.3503L24.022 32.5022L22.554 31.8293ZM23.9484 32.6303C24.8376 31.3663 26.9584 32.0551 26.858 33.6992L28.4699 33.7975C28.6749 30.4372 24.4006 29.1808 22.6276 31.7012L23.9484 32.6303ZM26.858 33.6992L26.1836 44.7526L27.7955 44.851L28.4699 33.7975L26.858 33.6992ZM26.1836 44.7526C26.1551 45.22 26.5108 45.622 26.9782 45.6505L27.0765 44.0386C27.4994 44.0644 27.8213 44.4281 27.7955 44.851L26.1836 44.7526ZM26.9782 45.6505C27.4456 45.679 27.8475 45.3232 27.8761 44.8559L26.2642 44.7575C26.29 44.3347 26.6537 44.0128 27.0765 44.0386L26.9782 45.6505ZM27.8761 44.8559L29.3182 21.2215L27.7063 21.1232L26.2642 44.7575L27.8761 44.8559ZM29.3182 21.2215C29.2961 21.583 28.9967 21.8575 28.6434 21.8581L28.6402 20.2433C28.1499 20.2442 27.7367 20.625 27.7063 21.1232L29.3182 21.2215ZM28.6433 21.8581C28.2872 21.8588 27.9866 21.5817 27.9657 21.2192L29.5779 21.1263C29.5491 20.6264 29.1341 20.2423 28.6403 20.2433L28.6433 21.8581ZM27.9657 21.2192L29.3276 44.853L30.9398 44.7601L29.5779 21.1263L27.9657 21.2192ZM29.3276 44.853C29.3546 45.3205 29.7554 45.6775 30.2228 45.6506L30.1299 44.0384C30.5528 44.0141 30.9154 44.3371 30.9398 44.7601L29.3276 44.853ZM30.2228 45.6506C30.6903 45.6237 31.0474 45.2228 31.0204 44.7554L29.4082 44.8484C29.3839 44.4255 29.7069 44.0628 30.1299 44.0384L30.2228 45.6506ZM31.0204 44.7555L30.377 33.5894L28.7648 33.6823L29.4082 44.8484L31.0204 44.7555ZM30.377 33.5894C30.2748 31.8162 32.6933 31.2015 33.4501 32.8084L34.911 32.1203C33.3974 28.9066 28.5604 30.1359 28.7648 33.6823L30.377 33.5894ZM33.448 32.804L37.751 42.0841L39.216 41.4048L34.9131 32.1247L33.448 32.804ZM38.0624 41.0511C38.0419 41.0665 38.0213 41.0819 38.0007 41.0973L38.9663 42.3917C38.9889 42.3748 39.0116 42.3578 39.0342 42.3407L38.0624 41.0511ZM45.0442 28.5068C45.0442 37.5749 37.6931 44.926 28.625 44.926V46.5409C38.5849 46.5409 46.659 38.4668 46.659 28.5068H45.0442ZM28.625 12.0877C37.6931 12.0877 45.0442 19.4388 45.0442 28.5068H46.659C46.659 18.5469 38.5849 10.4728 28.625 10.4728V12.0877ZM12.2059 28.5068C12.2059 19.4388 19.557 12.0877 28.625 12.0877V10.4728C18.6651 10.4728 10.591 18.5469 10.591 28.5068H12.2059ZM28.625 44.926C19.557 44.926 12.2059 37.5749 12.2059 28.5068H10.591C10.591 38.4668 18.6651 46.5409 28.625 46.5409V44.926Z" fill="#357337"/>
<circle cx="147.599" cy="13.3006" r="2.29869" fill="#357337"/>
<path d="M82.191 10.2429V14.282H75.844V31.2883H71.1065V14.282H64.7595V10.2429H82.191Z" fill="#357337"/>
<path d="M96.8355 31.2883C96.6128 30.5595 96.3598 29.8104 96.0763 29.0411C95.8131 28.2717 95.5499 27.5024 95.2868 26.733H87.0873C86.8241 27.5024 86.5507 28.2717 86.2673 29.0411C86.0041 29.8104 85.7612 30.5595 85.5385 31.2883H80.6188C81.4083 29.0208 82.1574 26.9254 82.866 25.002C83.5746 23.0787 84.263 21.2667 84.9311 19.5661C85.6194 17.8654 86.2876 16.2559 86.9354 14.7375C87.6035 13.1988 88.2919 11.7006 89.0005 10.2429H93.5254C94.2137 11.7006 94.892 13.1988 95.5601 14.7375C96.2282 16.2559 96.8963 17.8654 97.5644 19.5661C98.2527 21.2667 98.9512 23.0787 99.6598 25.002C100.368 26.9254 101.118 29.0208 101.907 31.2883H96.8355ZM91.1566 15.0108C91.0554 15.3145 90.9036 15.7295 90.7011 16.2559C90.4987 16.7823 90.2658 17.3897 90.0026 18.078C89.7394 18.7664 89.4459 19.5256 89.1219 20.3557C88.8183 21.1857 88.5045 22.0563 88.1805 22.9674H94.1631C93.8392 22.0563 93.5254 21.1857 93.2217 20.3557C92.918 19.5256 92.6244 18.7664 92.341 18.078C92.0778 17.3897 91.845 16.7823 91.6425 16.2559C91.4401 15.7295 91.2781 15.3145 91.1566 15.0108Z" fill="#357337"/>
<path d="M110.796 10C113.954 10 116.374 10.5669 118.054 11.7006C119.735 12.8141 120.575 14.5553 120.575 16.924C120.575 18.402 120.231 19.6066 119.542 20.5379C118.874 21.4489 117.902 22.1676 116.627 22.694C117.052 23.2204 117.497 23.8278 117.963 24.5161C118.429 25.1843 118.884 25.8929 119.33 26.6419C119.795 27.3708 120.241 28.1401 120.666 28.9499C121.091 29.7395 121.486 30.519 121.85 31.2883H116.536C116.151 30.6 115.756 29.9015 115.351 29.1929C114.967 28.4843 114.562 27.7959 114.137 27.1278C113.732 26.4597 113.327 25.8321 112.922 25.245C112.517 24.6376 112.112 24.091 111.707 23.6051H109.369V31.2883H104.631V10.5466C105.664 10.3442 106.727 10.2025 107.82 10.1215C108.933 10.0405 109.925 10 110.796 10ZM111.069 14.039C110.725 14.039 110.411 14.0491 110.128 14.0694C109.865 14.0896 109.612 14.1099 109.369 14.1301V19.8394H110.705C112.487 19.8394 113.762 19.6167 114.531 19.1713C115.301 18.7259 115.685 17.9667 115.685 16.8936C115.685 15.8611 115.291 15.1323 114.501 14.7071C113.732 14.2617 112.588 14.039 111.069 14.039Z" fill="#357337"/>
<path d="M137.308 31.2883C136.882 30.6 136.376 29.861 135.789 29.0714C135.222 28.2616 134.595 27.4619 133.906 26.6723C133.238 25.8625 132.54 25.0931 131.811 24.3643C131.082 23.6152 130.353 22.9572 129.624 22.3903V31.2883H124.887V10.2429H129.624V18.1995C130.859 16.9038 132.094 15.5574 133.329 14.1605C134.584 12.7433 135.749 11.4374 136.822 10.2429H142.44C141.002 11.9436 139.555 13.5835 138.097 15.1626C136.66 16.7418 135.141 18.3311 133.542 19.9305C135.222 21.3275 136.842 22.9876 138.401 24.9109C139.98 26.8343 141.488 28.9601 142.926 31.2883H137.308Z" fill="#357337"/>
<path d="M149.898 31.2883H145.373V16.924H149.898V31.2883Z" fill="#357337"/>
<path d="M168.546 31.2883C167.19 28.8791 165.722 26.5002 164.143 24.1517C162.564 21.8032 160.883 19.5863 159.102 17.501V31.2883H154.425V10.2429H158.282C158.95 10.9111 159.689 11.731 160.499 12.7028C161.308 13.6746 162.128 14.7172 162.958 15.8308C163.809 16.924 164.649 18.0679 165.479 19.2624C166.309 20.4366 167.089 21.5704 167.817 22.6637V10.2429H172.525V31.2883H168.546Z" fill="#357337"/>
<path d="M65.7339 43V34.6524H70.3715V35.1393H66.2209V38.5827H69.6759V39.0697H66.2209V43H65.7339ZM73.7637 43.1739C73.1454 43.1739 72.6236 43.0328 72.1985 42.7507C71.7734 42.4686 71.4507 42.0783 71.2304 41.5797C71.0102 41.0812 70.9 40.5073 70.9 39.8581C70.9 39.2011 71.0121 38.6252 71.2362 38.1306C71.4604 37.6359 71.785 37.2514 72.2101 36.977C72.6391 36.7026 73.157 36.5654 73.7637 36.5654C74.3859 36.5654 74.9096 36.7064 75.3347 36.9886C75.7598 37.2668 76.0806 37.6533 76.297 38.148C76.5173 38.6426 76.6274 39.2127 76.6274 39.8581C76.6274 40.5189 76.5173 41.0986 76.297 41.5971C76.0767 42.0918 75.7521 42.4783 75.3231 42.7565C74.898 43.0348 74.3782 43.1739 73.7637 43.1739ZM73.7637 42.687C74.5521 42.687 75.1395 42.4261 75.526 41.9044C75.9124 41.3788 76.1057 40.6967 76.1057 39.8581C76.1057 39.004 75.9105 38.3238 75.5202 37.8175C75.1337 37.3074 74.5482 37.0523 73.7637 37.0523C73.2342 37.0523 72.7956 37.1721 72.4478 37.4117C72.1038 37.6513 71.8468 37.9818 71.6768 38.403C71.5068 38.8243 71.4217 39.3093 71.4217 39.8581C71.4217 40.7083 71.6188 41.3923 72.013 41.9102C72.4111 42.428 72.9946 42.687 73.7637 42.687ZM80.4211 43.1739C79.8028 43.1739 79.2811 43.0328 78.856 42.7507C78.4308 42.4686 78.1082 42.0783 77.8879 41.5797C77.6676 41.0812 77.5574 40.5073 77.5574 39.8581C77.5574 39.2011 77.6695 38.6252 77.8937 38.1306C78.1178 37.6359 78.4424 37.2514 78.8676 36.977C79.2965 36.7026 79.8144 36.5654 80.4211 36.5654C81.0433 36.5654 81.567 36.7064 81.9921 36.9886C82.4172 37.2668 82.738 37.6533 82.9544 38.148C83.1747 38.6426 83.2848 39.2127 83.2848 39.8581C83.2848 40.5189 83.1747 41.0986 82.9544 41.5971C82.7341 42.0918 82.4095 42.4783 81.9805 42.7565C81.5554 43.0348 81.0356 43.1739 80.4211 43.1739ZM80.4211 42.687C81.2095 42.687 81.7969 42.4261 82.1834 41.9044C82.5699 41.3788 82.7631 40.6967 82.7631 39.8581C82.7631 39.004 82.5679 38.3238 82.1776 37.8175C81.7911 37.3074 81.2057 37.0523 80.4211 37.0523C79.8917 37.0523 79.453 37.1721 79.1052 37.4117C78.7613 37.6513 78.5043 37.9818 78.3342 38.403C78.1642 38.8243 78.0792 39.3093 78.0792 39.8581C78.0792 40.7083 78.2763 41.3923 78.6705 41.9102C79.0685 42.428 79.6521 42.687 80.4211 42.687ZM86.9394 43.1739C86.3482 43.1739 85.8496 43.029 85.4438 42.7391C85.0419 42.4454 84.7366 42.0493 84.5279 41.5508C84.3192 41.0484 84.2149 40.4841 84.2149 39.8581C84.2149 39.2436 84.3173 38.6871 84.5221 38.1885C84.7269 37.69 85.0245 37.2958 85.4148 37.006C85.809 36.7122 86.2863 36.5654 86.8467 36.5654C87.4302 36.5654 87.9211 36.7084 88.3191 36.9944C88.721 37.2765 89.0244 37.6668 89.2292 38.1653C89.4341 38.66 89.5365 39.2243 89.5365 39.8581C89.5365 40.4803 89.4341 41.0426 89.2292 41.545C89.0283 42.0435 88.7346 42.4396 88.3481 42.7333C87.9616 43.0271 87.4921 43.1739 86.9394 43.1739ZM86.9394 42.687C87.4302 42.687 87.8399 42.5633 88.1684 42.316C88.5007 42.0686 88.75 41.7324 88.9162 41.3073C89.0824 40.8783 89.1655 40.3952 89.1655 39.8581C89.1655 39.3131 89.0804 38.8301 88.9104 38.4088C88.7442 37.9837 88.495 37.6513 88.1626 37.4117C87.8341 37.1721 87.4264 37.0523 86.9394 37.0523C86.4409 37.0523 86.0274 37.176 85.6989 37.4233C85.3743 37.6668 85.1327 38.0011 84.9743 38.4262C84.8158 38.8475 84.7366 39.3247 84.7366 39.8581C84.7366 40.3952 84.8197 40.8783 84.9859 41.3073C85.152 41.7324 85.3975 42.0686 85.7221 42.316C86.0506 42.5633 86.4564 42.687 86.9394 42.687ZM89.1655 43V38.0726H89.1307V34.6524H89.6176V43H89.1655ZM94.2363 43V36.0321C94.2363 35.8698 94.2459 35.721 94.2652 35.5857C94.2884 35.4466 94.3271 35.319 94.3812 35.2031C94.4353 35.0872 94.5106 34.977 94.6073 34.8727C94.7 34.7761 94.8024 34.6988 94.9145 34.6408C95.0304 34.5828 95.158 34.5423 95.2971 34.5191C95.4362 34.492 95.5889 34.4785 95.7551 34.4785H96.5666V34.9191H95.813C95.4498 34.9191 95.1773 35.006 94.9957 35.1799C94.814 35.3538 94.7232 35.6533 94.7232 36.0784V43H94.2363ZM93.1001 37.2262V36.7393H96.5666V37.2262H93.1001ZM99.782 43.1739C99.1637 43.1739 98.642 43.0328 98.2169 42.7507C97.7917 42.4686 97.469 42.0783 97.2488 41.5797C97.0285 41.0812 96.9183 40.5073 96.9183 39.8581C96.9183 39.2011 97.0304 38.6252 97.2546 38.1306C97.4787 37.6359 97.8033 37.2514 98.2285 36.977C98.6574 36.7026 99.1753 36.5654 99.782 36.5654C100.404 36.5654 100.928 36.7064 101.353 36.9886C101.778 37.2668 102.099 37.6533 102.315 38.148C102.536 38.6426 102.646 39.2127 102.646 39.8581C102.646 40.5189 102.536 41.0986 102.315 41.5971C102.095 42.0918 101.77 42.4783 101.341 42.7565C100.916 43.0348 100.397 43.1739 99.782 43.1739ZM99.782 42.687C100.57 42.687 101.158 42.4261 101.544 41.9044C101.931 41.3788 102.124 40.6967 102.124 39.8581C102.124 39.004 101.929 38.3238 101.539 37.8175C101.152 37.3074 100.567 37.0523 99.782 37.0523C99.2526 37.0523 98.8139 37.1721 98.4661 37.4117C98.1222 37.6513 97.8652 37.9818 97.6951 38.403C97.5251 38.8243 97.4401 39.3093 97.4401 39.8581C97.4401 40.7083 97.6372 41.3923 98.0314 41.9102C98.4294 42.428 99.013 42.687 99.782 42.687ZM103.924 43V36.7393H104.376V38.2349L104.225 38.0378C104.291 37.8678 104.374 37.7093 104.474 37.5625C104.575 37.4156 104.673 37.2958 104.77 37.2031C104.94 37.0369 105.141 36.9113 105.373 36.8263C105.609 36.7374 105.844 36.6871 106.08 36.6755C106.316 36.6601 106.524 36.6813 106.706 36.7393V37.2031C106.447 37.1451 106.173 37.1354 105.883 37.1741C105.593 37.2088 105.323 37.3422 105.071 37.5741C104.851 37.7789 104.695 38.0146 104.602 38.2813C104.513 38.5479 104.459 38.8243 104.44 39.1102C104.42 39.3924 104.411 39.661 104.411 39.916V43H103.924ZM114.777 43V39.6841C114.777 39.2358 114.731 38.8494 114.638 38.5248C114.549 38.1963 114.416 37.9257 114.238 37.7132C114.06 37.4968 113.844 37.3364 113.589 37.232C113.338 37.1277 113.05 37.0755 112.725 37.0755C112.343 37.0755 112.016 37.1432 111.745 37.2784C111.479 37.4098 111.262 37.5914 111.096 37.8233C110.93 38.0552 110.808 38.3219 110.731 38.6233C110.654 38.9247 110.615 39.2436 110.615 39.5798L110.163 39.5914C110.163 38.8764 110.281 38.3006 110.517 37.8639C110.752 37.4233 111.063 37.1026 111.45 36.9016C111.84 36.7007 112.265 36.6002 112.725 36.6002C113.042 36.6002 113.332 36.6446 113.595 36.7335C113.861 36.8224 114.097 36.9519 114.302 37.1219C114.511 37.2881 114.686 37.4929 114.829 37.7364C114.972 37.9798 115.081 38.2581 115.154 38.5711C115.228 38.8803 115.264 39.2204 115.264 39.5914V43H114.777ZM110.128 43V36.7393H110.58V38.0146H110.615V43H110.128ZM119.29 43.1739C118.672 43.1739 118.15 43.0328 117.725 42.7507C117.3 42.4686 116.977 42.0783 116.757 41.5797C116.537 41.0812 116.426 40.5073 116.426 39.8581C116.426 39.2011 116.538 38.6252 116.763 38.1306C116.987 37.6359 117.311 37.2514 117.737 36.977C118.166 36.7026 118.683 36.5654 119.29 36.5654C119.912 36.5654 120.436 36.7064 120.861 36.9886C121.286 37.2668 121.607 37.6533 121.823 38.148C122.044 38.6426 122.154 39.2127 122.154 39.8581C122.154 40.5189 122.044 41.0986 121.823 41.5971C121.603 42.0918 121.278 42.4783 120.849 42.7565C120.424 43.0348 119.905 43.1739 119.29 43.1739ZM119.29 42.687C120.079 42.687 120.666 42.4261 121.052 41.9044C121.439 41.3788 121.632 40.6967 121.632 39.8581C121.632 39.004 121.437 38.3238 121.047 37.8175C120.66 37.3074 120.075 37.0523 119.29 37.0523C118.761 37.0523 118.322 37.1721 117.974 37.4117C117.63 37.6513 117.373 37.9818 117.203 38.403C117.033 38.8243 116.948 39.3093 116.948 39.8581C116.948 40.7083 117.145 41.3923 117.539 41.9102C117.937 42.428 118.521 42.687 119.29 42.687ZM124.539 43L122.626 36.7393H123.136L124.794 42.1652L126.452 36.7393H126.962L128.62 42.1652L130.289 36.7393H130.788L128.875 43H128.365L126.707 37.5625L125.049 43H124.539ZM130.788 44.0319L130.823 43.7304C130.958 43.7381 131.049 43.7053 131.096 43.6319C131.142 43.5623 131.165 43.4696 131.165 43.3536C131.169 43.2415 131.171 43.1237 131.171 43H130.788V41.9565H131.484V43.3478C131.484 43.6029 131.414 43.7922 131.275 43.9159C131.136 44.0396 130.974 44.0782 130.788 44.0319ZM136.011 43V34.6524H140.648V35.1393H136.498V38.5827H139.953V39.0697H136.498V43H136.011ZM144.04 43.1739C143.422 43.1739 142.9 43.0328 142.475 42.7507C142.05 42.4686 141.727 42.0783 141.507 41.5797C141.287 41.0812 141.177 40.5073 141.177 39.8581C141.177 39.2011 141.289 38.6252 141.513 38.1306C141.737 37.6359 142.062 37.2514 142.487 36.977C142.916 36.7026 143.434 36.5654 144.04 36.5654C144.663 36.5654 145.186 36.7064 145.611 36.9886C146.036 37.2668 146.357 37.6533 146.574 38.148C146.794 38.6426 146.904 39.2127 146.904 39.8581C146.904 40.5189 146.794 41.0986 146.574 41.5971C146.353 42.0918 146.029 42.4783 145.6 42.7565C145.175 43.0348 144.655 43.1739 144.04 43.1739ZM144.04 42.687C144.829 42.687 145.416 42.4261 145.803 41.9044C146.189 41.3788 146.382 40.6967 146.382 39.8581C146.382 39.004 146.187 38.3238 145.797 37.8175C145.41 37.3074 144.825 37.0523 144.04 37.0523C143.511 37.0523 143.072 37.1721 142.724 37.4117C142.381 37.6513 142.124 37.9818 141.953 38.403C141.783 38.8243 141.698 39.3093 141.698 39.8581C141.698 40.7083 141.895 41.3923 142.29 41.9102C142.688 42.428 143.271 42.687 144.04 42.687ZM150.698 43.1739C150.079 43.1739 149.558 43.0328 149.133 42.7507C148.708 42.4686 148.385 42.0783 148.165 41.5797C147.944 41.0812 147.834 40.5073 147.834 39.8581C147.834 39.2011 147.946 38.6252 148.17 38.1306C148.394 37.6359 148.719 37.2514 149.144 36.977C149.573 36.7026 150.091 36.5654 150.698 36.5654C151.32 36.5654 151.844 36.7064 152.269 36.9886C152.694 37.2668 153.015 37.6533 153.231 38.148C153.451 38.6426 153.561 39.2127 153.561 39.8581C153.561 40.5189 153.451 41.0986 153.231 41.5971C153.011 42.0918 152.686 42.4783 152.257 42.7565C151.832 43.0348 151.312 43.1739 150.698 43.1739ZM150.698 42.687C151.486 42.687 152.074 42.4261 152.46 41.9044C152.847 41.3788 153.04 40.6967 153.04 39.8581C153.04 39.004 152.845 38.3238 152.454 37.8175C152.068 37.3074 151.482 37.0523 150.698 37.0523C150.168 37.0523 149.73 37.1721 149.382 37.4117C149.038 37.6513 148.781 37.9818 148.611 38.403C148.441 38.8243 148.356 39.3093 148.356 39.8581C148.356 40.7083 148.553 41.3923 148.947 41.9102C149.345 42.428 149.929 42.687 150.698 42.687ZM157.216 43.1739C156.625 43.1739 156.126 43.029 155.72 42.7391C155.319 42.4454 155.013 42.0493 154.805 41.5508C154.596 41.0484 154.492 40.4841 154.492 39.8581C154.492 39.2436 154.594 38.6871 154.799 38.1885C155.004 37.69 155.301 37.2958 155.692 37.006C156.086 36.7122 156.563 36.5654 157.123 36.5654C157.707 36.5654 158.198 36.7084 158.596 36.9944C158.998 37.2765 159.301 37.6668 159.506 38.1653C159.711 38.66 159.813 39.2243 159.813 39.8581C159.813 40.4803 159.711 41.0426 159.506 41.545C159.305 42.0435 159.011 42.4396 158.625 42.7333C158.238 43.0271 157.769 43.1739 157.216 43.1739ZM157.216 42.687C157.707 42.687 158.117 42.5633 158.445 42.316C158.777 42.0686 159.027 41.7324 159.193 41.3073C159.359 40.8783 159.442 40.3952 159.442 39.8581C159.442 39.3131 159.357 38.8301 159.187 38.4088C159.021 37.9837 158.772 37.6513 158.439 37.4117C158.111 37.1721 157.703 37.0523 157.216 37.0523C156.718 37.0523 156.304 37.176 155.976 37.4233C155.651 37.6668 155.409 38.0011 155.251 38.4262C155.092 38.8475 155.013 39.3247 155.013 39.8581C155.013 40.3952 155.096 40.8783 155.263 41.3073C155.429 41.7324 155.674 42.0686 155.999 42.316C156.327 42.5633 156.733 42.687 157.216 42.687ZM159.442 43V38.0726H159.407V34.6524H159.894V43H159.442ZM164.513 43V36.0321C164.513 35.8698 164.523 35.721 164.542 35.5857C164.565 35.4466 164.604 35.319 164.658 35.2031C164.712 35.0872 164.787 34.977 164.884 34.8727C164.977 34.7761 165.079 34.6988 165.191 34.6408C165.307 34.5828 165.435 34.5423 165.574 34.5191C165.713 34.492 165.866 34.4785 166.032 34.4785H166.843V34.9191H166.09C165.726 34.9191 165.454 35.006 165.272 35.1799C165.091 35.3538 165 35.6533 165 36.0784V43H164.513ZM163.377 37.2262V36.7393H166.843V37.2262H163.377ZM170.059 43.1739C169.44 43.1739 168.919 43.0328 168.494 42.7507C168.068 42.4686 167.746 42.0783 167.525 41.5797C167.305 41.0812 167.195 40.5073 167.195 39.8581C167.195 39.2011 167.307 38.6252 167.531 38.1306C167.755 37.6359 168.08 37.2514 168.505 36.977C168.934 36.7026 169.452 36.5654 170.059 36.5654C170.681 36.5654 171.205 36.7064 171.63 36.9886C172.055 37.2668 172.376 37.6533 172.592 38.148C172.812 38.6426 172.922 39.2127 172.922 39.8581C172.922 40.5189 172.812 41.0986 172.592 41.5971C172.372 42.0918 172.047 42.4783 171.618 42.7565C171.193 43.0348 170.673 43.1739 170.059 43.1739ZM170.059 42.687C170.847 42.687 171.435 42.4261 171.821 41.9044C172.207 41.3788 172.401 40.6967 172.401 39.8581C172.401 39.004 172.205 38.3238 171.815 37.8175C171.429 37.3074 170.843 37.0523 170.059 37.0523C169.529 37.0523 169.091 37.1721 168.743 37.4117C168.399 37.6513 168.142 37.9818 167.972 38.403C167.802 38.8243 167.717 39.3093 167.717 39.8581C167.717 40.7083 167.914 41.3923 168.308 41.9102C168.706 42.428 169.29 42.687 170.059 42.687ZM174.2 43V36.7393H174.652V38.2349L174.502 38.0378C174.567 37.8678 174.65 37.7093 174.751 37.5625C174.851 37.4156 174.95 37.2958 175.047 37.2031C175.217 37.0369 175.418 36.9113 175.649 36.8263C175.885 36.7374 176.121 36.6871 176.357 36.6755C176.592 36.6601 176.801 36.6813 176.983 36.7393V37.2031C176.724 37.1451 176.449 37.1354 176.16 37.1741C175.87 37.2088 175.599 37.3422 175.348 37.5741C175.128 37.7789 174.971 38.0146 174.878 38.2813C174.79 38.5479 174.736 38.8243 174.716 39.1102C174.697 39.3924 174.687 39.661 174.687 39.916V43H174.2ZM183.639 43C183.326 43.0696 183.017 43.0947 182.712 43.0754C182.407 43.0599 182.134 42.9884 181.895 42.8609C181.655 42.7295 181.475 42.5324 181.355 42.2696C181.263 42.0648 181.211 41.858 181.199 41.6493C181.187 41.4368 181.182 41.1952 181.182 40.9247V35.0002H181.669V40.9247C181.669 41.1952 181.67 41.4136 181.674 41.5797C181.682 41.7459 181.723 41.9024 181.796 42.0493C181.935 42.3276 182.155 42.4995 182.457 42.5652C182.758 42.6271 183.153 42.6174 183.639 42.5362V43ZM179.709 37.2262V36.7393H183.639V37.2262H179.709ZM189.447 43V39.6841C189.447 39.2358 189.401 38.8494 189.308 38.5248C189.219 38.1963 189.086 37.9257 188.908 37.7132C188.73 37.4968 188.514 37.3364 188.259 37.232C188.007 37.1277 187.719 37.0755 187.395 37.0755C187.012 37.0755 186.686 37.1432 186.415 37.2784C186.148 37.4098 185.932 37.5914 185.766 37.8233C185.6 38.0552 185.478 38.3219 185.401 38.6233C185.323 38.9247 185.285 39.2436 185.285 39.5798L184.833 39.5914C184.833 38.8764 184.95 38.3006 185.186 37.8639C185.422 37.4233 185.733 37.1026 186.119 36.9016C186.51 36.7007 186.935 36.6002 187.395 36.6002C187.712 36.6002 188.002 36.6446 188.264 36.7335C188.531 36.8224 188.767 36.9519 188.972 37.1219C189.18 37.2881 189.356 37.4929 189.499 37.7364C189.642 37.9798 189.75 38.2581 189.824 38.5711C189.897 38.8803 189.934 39.2204 189.934 39.5914V43H189.447ZM184.798 43V34.6524H185.25V39.5798H185.285V43H184.798ZM193.96 43.1739C193.368 43.1739 192.858 43.0406 192.429 42.7739C192.004 42.5073 191.676 42.1266 191.444 41.6319C191.212 41.1372 191.096 40.5498 191.096 39.8696C191.096 39.1856 191.21 38.5963 191.438 38.1016C191.67 37.6069 191.998 37.2282 192.424 36.9654C192.853 36.6987 193.365 36.5654 193.96 36.5654C194.559 36.5654 195.071 36.7007 195.496 36.9712C195.921 37.2417 196.246 37.634 196.47 38.148C196.698 38.662 196.812 39.2822 196.812 40.0088H196.29V39.8465C196.267 38.946 196.054 38.2562 195.652 37.777C195.254 37.2939 194.69 37.0523 193.96 37.0523C193.218 37.0523 192.642 37.2997 192.232 37.7943C191.823 38.2851 191.618 38.9769 191.618 39.8696C191.618 40.7624 191.823 41.4561 192.232 41.9508C192.642 42.4416 193.218 42.687 193.96 42.687C194.478 42.687 194.932 42.5652 195.322 42.3218C195.712 42.0783 196.023 41.7285 196.255 41.2725L196.661 41.5044C196.406 42.0377 196.045 42.4493 195.577 42.7391C195.11 43.029 194.57 43.1739 193.96 43.1739ZM191.409 40.0088V39.5218H196.51V40.0088H191.409ZM201.084 43V36.0321C201.084 35.8698 201.093 35.721 201.112 35.5857C201.136 35.4466 201.174 35.319 201.228 35.2031C201.283 35.0872 201.358 34.977 201.455 34.8727C201.547 34.7761 201.65 34.6988 201.762 34.6408C201.878 34.5828 202.005 34.5423 202.144 34.5191C202.283 34.492 202.436 34.4785 202.602 34.4785H203.414V34.9191H202.66C202.297 34.9191 202.025 35.006 201.843 35.1799C201.661 35.3538 201.57 35.6533 201.57 36.0784V43H201.084ZM199.947 37.2262V36.7393H203.414V37.2262H199.947ZM206.763 43.1391C206.446 43.1391 206.154 43.0947 205.888 43.0058C205.625 42.9169 205.389 42.7894 205.18 42.6232C204.976 42.4532 204.802 42.2464 204.659 42.0029C204.516 41.7595 204.407 41.4831 204.334 41.174C204.261 40.8609 204.224 40.5189 204.224 40.1479V36.7393H204.711V40.0552C204.711 40.4996 204.755 40.886 204.844 41.2145C204.937 41.543 205.072 41.8155 205.25 42.0319C205.428 42.2445 205.642 42.4029 205.893 42.5073C206.148 42.6116 206.438 42.6638 206.763 42.6638C207.146 42.6638 207.47 42.5981 207.737 42.4667C208.007 42.3314 208.226 42.1478 208.392 41.916C208.558 41.6841 208.68 41.4174 208.757 41.116C208.834 40.8146 208.873 40.4957 208.873 40.1595L209.325 40.1479C209.325 40.8629 209.207 41.4406 208.972 41.8812C208.736 42.3179 208.423 42.6367 208.033 42.8377C207.646 43.0386 207.223 43.1391 206.763 43.1391ZM208.908 43V41.7247H208.873V36.7393H209.36V43H208.908ZM214.221 43C213.908 43.0696 213.598 43.0947 213.293 43.0754C212.988 43.0599 212.715 42.9884 212.476 42.8609C212.236 42.7295 212.056 42.5324 211.937 42.2696C211.844 42.0648 211.792 41.858 211.78 41.6493C211.769 41.4368 211.763 41.1952 211.763 40.9247V35.0002H212.25V40.9247C212.25 41.1952 212.252 41.4136 212.255 41.5797C212.263 41.7459 212.304 41.9024 212.377 42.0493C212.516 42.3276 212.737 42.4995 213.038 42.5652C213.34 42.6271 213.734 42.6174 214.221 42.5362V43ZM210.29 37.2262V36.7393H214.221V37.2262H210.29ZM217.802 43.1391C217.485 43.1391 217.193 43.0947 216.927 43.0058C216.664 42.9169 216.428 42.7894 216.22 42.6232C216.015 42.4532 215.841 42.2464 215.698 42.0029C215.555 41.7595 215.447 41.4831 215.373 41.174C215.3 40.8609 215.263 40.5189 215.263 40.1479V36.7393H215.75V40.0552C215.75 40.4996 215.794 40.886 215.883 41.2145C215.976 41.543 216.111 41.8155 216.289 42.0319C216.467 42.2445 216.681 42.4029 216.933 42.5073C217.188 42.6116 217.477 42.6638 217.802 42.6638C218.185 42.6638 218.509 42.5981 218.776 42.4667C219.046 42.3314 219.265 42.1478 219.431 41.916C219.597 41.6841 219.719 41.4174 219.796 41.116C219.874 40.8146 219.912 40.4957 219.912 40.1595L220.364 40.1479C220.364 40.8629 220.246 41.4406 220.011 41.8812C219.775 42.3179 219.462 42.6367 219.072 42.8377C218.685 43.0386 218.262 43.1391 217.802 43.1391ZM219.947 43V41.7247H219.912V36.7393H220.399V43H219.947ZM222.025 43V36.7393H222.477V38.2349L222.326 38.0378C222.392 37.8678 222.475 37.7093 222.576 37.5625C222.676 37.4156 222.775 37.2958 222.871 37.2031C223.041 37.0369 223.242 36.9113 223.474 36.8263C223.71 36.7374 223.946 36.6871 224.182 36.6755C224.417 36.6601 224.626 36.6813 224.808 36.7393V37.2031C224.549 37.1451 224.274 37.1354 223.984 37.1741C223.695 37.2088 223.424 37.3422 223.173 37.5741C222.953 37.7789 222.796 38.0146 222.703 38.2813C222.614 38.5479 222.56 38.8243 222.541 39.1102C222.522 39.3924 222.512 39.661 222.512 39.916V43H222.025ZM228.311 43.1739C227.72 43.1739 227.21 43.0406 226.781 42.7739C226.356 42.5073 226.027 42.1266 225.795 41.6319C225.563 41.1372 225.448 40.5498 225.448 39.8696C225.448 39.1856 225.562 38.5963 225.79 38.1016C226.021 37.6069 226.35 37.2282 226.775 36.9654C227.204 36.6987 227.716 36.5654 228.311 36.5654C228.91 36.5654 229.422 36.7007 229.847 36.9712C230.273 37.2417 230.597 37.634 230.821 38.148C231.049 38.662 231.163 39.2822 231.163 40.0088H230.642V39.8465C230.618 38.946 230.406 38.2562 230.004 37.777C229.606 37.2939 229.042 37.0523 228.311 37.0523C227.569 37.0523 226.993 37.2997 226.584 37.7943C226.174 38.2851 225.969 38.9769 225.969 39.8696C225.969 40.7624 226.174 41.4561 226.584 41.9508C226.993 42.4416 227.569 42.687 228.311 42.687C228.829 42.687 229.283 42.5652 229.673 42.3218C230.064 42.0783 230.375 41.7285 230.607 41.2725L231.013 41.5044C230.758 42.0377 230.396 42.4493 229.929 42.7391C229.461 43.029 228.922 43.1739 228.311 43.1739ZM225.761 40.0088V39.5218H230.862V40.0088H225.761Z" fill="#2B1870" fill-opacity="0.9"/>
</svg>
