<svg width="32" height="33" viewBox="0 0 32 33" fill="none" xmlns="http://www.w3.org/2000/svg">
<rect y="0.5" width="32" height="32" rx="16" fill="#EEEAF5"/>
<path d="M15.5246 19.0984L20.307 23.8807C20.7171 24.2778 21.2669 24.4977 21.8377 24.4931C22.4086 24.4884 22.9547 24.2596 23.3584 23.856C23.762 23.4523 23.9908 22.9062 23.9955 22.3353C24.0001 21.7645 23.7802 21.2147 23.3831 20.8046L18.5622 15.9837M15.5246 19.0984L17.5721 16.6128C17.8321 16.2978 18.1791 16.0993 18.563 15.9845C19.0142 15.8499 19.517 15.8303 19.9928 15.8696C20.6341 15.9247 21.2787 15.8111 21.8626 15.5401C22.4465 15.2691 22.9494 14.8502 23.3213 14.3248C23.6933 13.7995 23.9214 13.186 23.983 12.5453C24.0447 11.9045 23.9377 11.2588 23.6727 10.6722L20.9854 13.3603C20.5358 13.2563 20.1244 13.0282 19.7981 12.7019C19.4718 12.3756 19.2437 11.9642 19.1397 11.5146L21.827 8.8273C21.2404 8.56231 20.5947 8.45533 19.9539 8.51697C19.3132 8.5786 18.6997 8.80672 18.1744 9.17868C17.649 9.55064 17.23 10.0535 16.9591 10.6374C16.6881 11.2213 16.5745 11.8659 16.6296 12.5072C16.7042 13.3898 16.5713 14.3644 15.888 14.9271L15.8043 14.9968M15.5246 19.0984L11.7061 23.7355C11.521 23.9611 11.2908 24.1455 11.0301 24.2767C10.7695 24.4079 10.4843 24.4831 10.1929 24.4975C9.90145 24.5118 9.61024 24.465 9.338 24.36C9.06576 24.255 8.81851 24.0941 8.61219 23.8878C8.40586 23.6815 8.24502 23.4343 8.14002 23.162C8.03502 22.8898 7.98818 22.5986 8.00253 22.3071C8.01687 22.0157 8.09208 21.7305 8.22331 21.4699C8.35453 21.2092 8.53887 20.979 8.76446 20.7939L14.3729 16.1756L11.0039 12.8066H9.84809L8.0024 9.73046L9.23286 8.5L12.309 10.3457V11.5015L15.8035 14.996L14.3721 16.1748M21.2298 21.7274L19.0765 19.5741M10.1491 22.3427H10.1557V22.3492H10.1491V22.3427Z" stroke="#7859B2" stroke-opacity="0.6" stroke-width="1.5" stroke-linecap="round" stroke-linejoin="round"/>
</svg>
