<svg width="108" height="37" viewBox="0 0 108 37" fill="none" xmlns="http://www.w3.org/2000/svg">
<path fill-rule="evenodd" clip-rule="evenodd" d="M18.155 34.4073C26.9402 34.4073 34.062 27.2854 34.062 18.5002C34.062 9.715 26.9402 2.59317 18.155 2.59317C9.36978 2.59317 2.24795 9.715 2.24795 18.5002C2.24795 27.2854 9.36978 34.4073 18.155 34.4073ZM18.155 35.6552C27.6294 35.6552 35.31 27.9747 35.31 18.5002C35.31 9.02577 27.6294 1.34521 18.155 1.34521C8.68056 1.34521 1 9.02577 1 18.5002C1 27.9747 8.68056 35.6552 18.155 35.6552ZM24.4227 26.7321C26.9162 24.8531 28.5283 21.867 28.5283 18.5043C28.5283 16.8242 28.1258 15.2381 27.4121 13.8372H27.6191C27.633 13.8372 27.6442 13.8259 27.6442 13.812C27.6442 13.7981 27.633 13.7868 27.6191 13.7868H27.3863C26.6154 12.2941 25.4901 11.0141 24.1217 10.0582C24.1924 9.99557 24.2652 9.9318 24.3403 9.86684C24.3719 9.83954 24.3753 9.79183 24.348 9.76027C24.3208 9.7287 24.273 9.72524 24.2415 9.75253C24.1561 9.82637 24.0733 9.89877 23.9931 9.96976C22.3491 8.85793 20.3667 8.20863 18.2326 8.20863C15.8933 8.20863 13.7363 8.98878 12.0074 10.3031C11.9133 10.2249 11.8167 10.145 11.7175 10.0633C11.6852 10.0368 11.6376 10.0414 11.6111 10.0737C11.5846 10.1059 11.5892 10.1535 11.6214 10.18C11.7118 10.2544 11.7994 10.3271 11.8844 10.3981C10.7227 11.3091 9.76173 12.4645 9.07888 13.7868H8.89237C8.87846 13.7868 8.86719 13.7981 8.86719 13.812C8.86719 13.8259 8.87846 13.8372 8.89237 13.8372H9.05304C8.33933 15.2381 7.9369 16.8242 7.9369 18.5043C7.9369 21.9121 9.59259 24.9333 12.1434 26.8072L12.0088 27.1009C12.0029 27.1135 12.0083 27.1285 12.0209 27.1344C12.0335 27.1403 12.0485 27.1349 12.0544 27.1223L12.1819 26.8353C13.8804 28.071 15.9714 28.8 18.2326 28.8C20.5379 28.8 22.6663 28.0423 24.3822 26.7624L24.5009 27.0183C24.5068 27.0309 24.5218 27.0363 24.5344 27.0304C24.547 27.0245 24.5524 27.0095 24.5465 26.9969L24.4227 26.7321ZM24.4227 26.7321L18.5011 14.0674C18.4534 13.9661 18.526 13.8491 18.638 13.8444C18.6872 13.8424 18.7364 13.8399 18.7856 13.8372H27.4121C27.4036 13.8203 27.3949 13.8036 27.3863 13.7868H19.3702C21.2695 13.5669 21.3562 13.4259 21.7829 12.7312C22.096 12.2214 22.5922 11.4137 24.1217 10.0582C24.0791 10.0284 24.0362 9.99891 23.9931 9.96976C22.505 11.2866 21.8865 12.1198 21.4893 12.6548C20.8542 13.5103 20.7849 13.6037 18.6317 13.6934C17.9013 13.7239 17.3955 13.767 17.009 13.7801C16.618 13.7358 16.3096 13.7028 16.0606 13.6717C15.37 13.4045 14.7414 12.5743 12.0074 10.3031C11.9662 10.3345 11.9251 10.3661 11.8844 10.3981C14.3249 12.4387 14.5782 13.1223 15.0667 13.4198C15.2825 13.5512 15.5442 13.6073 16.0606 13.6717C16.0924 13.684 16.1244 13.6952 16.1567 13.7052C16.3941 13.7787 16.6501 13.7924 17.009 13.7801C17.0283 13.7823 17.0478 13.7845 17.0675 13.7868H9.07888C9.07022 13.8036 9.06161 13.8203 9.05304 13.8372H17.6592C17.859 13.8484 17.9895 14.0577 17.9042 14.2388L14.9029 20.7868C14.8493 20.863 14.8005 20.9467 14.7574 21.0381L13.8026 23.1873L12.1434 26.8072C12.1562 26.8166 12.1691 26.8259 12.1819 26.8353L13.8026 23.1873L14.9029 20.7868C15.7333 19.6064 17.728 20.2131 17.6327 21.774L17.212 28.6694C17.2111 28.6833 17.2217 28.6952 17.2356 28.696C17.2495 28.6969 17.2614 28.6863 17.2623 28.6724L18.1619 13.9289C18.1645 13.8862 18.2 13.8531 18.2427 13.853C18.2857 13.8529 18.3213 13.8863 18.3238 13.9292L19.1734 28.6724C19.1742 28.6862 19.1861 28.6968 19.2 28.696C19.2139 28.6952 19.2245 28.6833 19.2237 28.6695L18.8223 21.7039C18.7267 20.0446 20.9897 19.4695 21.6979 20.9731L24.3822 26.7624C24.3957 26.7523 24.4092 26.7422 24.4227 26.7321ZM18.2326 29.2506C24.1676 29.2506 28.9788 24.4393 28.9788 18.5043C28.9788 12.5693 24.1676 7.75806 18.2326 7.75806C12.2976 7.75806 7.48633 12.5693 7.48633 18.5043C7.48633 24.4393 12.2976 29.2506 18.2326 29.2506Z" fill="#07352E"/>
<path d="M24.3403 9.86684L24.6698 10.2478L24.6698 10.2478L24.3403 9.86684ZM24.348 9.76027L23.967 10.0897L23.9671 10.0897L24.348 9.76027ZM24.2415 9.75253L23.912 9.37152L23.912 9.37153L24.2415 9.75253ZM11.7175 10.0633L11.3974 10.4523L11.3974 10.4523L11.7175 10.0633ZM11.6214 10.18L11.9415 9.79109L11.9415 9.79109L11.6214 10.18ZM12.0088 27.1009L12.4645 27.3155L12.4667 27.3108L12.0088 27.1009ZM12.0209 27.1344L11.8063 27.5901L11.8063 27.5901L12.0209 27.1344ZM12.0544 27.1223L12.5102 27.337L12.5147 27.3268L12.0544 27.1223ZM24.5009 27.0183L24.0439 27.2302L24.0452 27.233L24.5009 27.0183ZM24.5465 26.9969L24.0902 27.2102L24.0908 27.2115L24.5465 26.9969ZM18.5011 14.0674L18.9574 13.8541L18.9568 13.8528L18.5011 14.0674ZM18.638 13.8444L18.6589 14.3477L18.6589 14.3477L18.638 13.8444ZM18.7856 13.8372V13.3335H18.7714L18.7571 13.3343L18.7856 13.8372ZM19.3702 13.7868L19.3123 13.2864L19.3702 14.2905V13.7868ZM21.7829 12.7312L21.3537 12.4675L21.3537 12.4675L21.7829 12.7312ZM21.4893 12.6548L21.0848 12.3546L21.4893 12.6548ZM18.6317 13.6934L18.6107 13.1902L18.6317 13.6934ZM15.0667 13.4198L14.8047 13.85H14.8047L15.0667 13.4198ZM16.1567 13.7052L16.0076 14.1863L16.0076 14.1863L16.1567 13.7052ZM17.0675 13.7868V14.2905L17.1246 13.2863L17.0675 13.7868ZM17.6592 13.8372L17.6874 13.3343L17.6733 13.3335H17.6592V13.8372ZM17.9042 14.2388L17.4485 14.0241L17.4463 14.0289L17.9042 14.2388ZM14.7574 21.0381L14.3016 20.8235L14.2971 20.8336L14.7574 21.0381ZM17.6327 21.774L18.1355 21.8047L17.6327 21.774ZM17.212 28.6694L17.7147 28.7001L17.7147 28.7001L17.212 28.6694ZM17.2623 28.6724L17.765 28.7032L17.765 28.7031L17.2623 28.6724ZM18.1619 13.9289L18.6646 13.9596V13.9596L18.1619 13.9289ZM18.2427 13.853L18.2417 13.3493H18.2417L18.2427 13.853ZM18.3238 13.9292L17.8209 13.9581V13.9581L18.3238 13.9292ZM19.1734 28.6724L19.6763 28.6434L19.6763 28.6434L19.1734 28.6724ZM19.2 28.696L19.2289 29.1989L19.229 29.1989L19.2 28.696ZM19.2237 28.6695L19.7265 28.6405L19.7265 28.6405L19.2237 28.6695ZM18.8223 21.7039L18.3194 21.7328L18.8223 21.7039ZM21.6979 20.9731L22.1549 20.7612L22.1536 20.7584L21.6979 20.9731ZM33.5584 18.5002C33.5584 27.0073 26.662 33.9036 18.155 33.9036V34.911C27.2184 34.911 34.5657 27.5636 34.5657 18.5002H33.5584ZM18.155 3.09686C26.662 3.09686 33.5584 9.99318 33.5584 18.5002H34.5657C34.5657 9.43681 27.2184 2.08948 18.155 2.08948V3.09686ZM2.75164 18.5002C2.75164 9.99318 9.64796 3.09686 18.155 3.09686V2.08948C9.0916 2.08948 1.74426 9.43681 1.74426 18.5002H2.75164ZM18.155 33.9036C9.64796 33.9036 2.75164 27.0073 2.75164 18.5002H1.74426C1.74426 27.5636 9.0916 34.911 18.155 34.911V33.9036ZM34.8063 18.5002C34.8063 27.6965 27.3513 35.1515 18.155 35.1515V36.1589C27.9076 36.1589 35.8137 28.2528 35.8137 18.5002H34.8063ZM18.155 1.84891C27.3513 1.84891 34.8063 9.30395 34.8063 18.5002H35.8137C35.8137 8.74759 27.9076 0.841524 18.155 0.841524V1.84891ZM1.50369 18.5002C1.50369 9.30395 8.95874 1.84891 18.155 1.84891V0.841524C8.40237 0.841524 0.496309 8.74759 0.496309 18.5002H1.50369ZM18.155 35.1515C8.95874 35.1515 1.50369 27.6965 1.50369 18.5002H0.496309C0.496309 28.2528 8.40237 36.1589 18.155 36.1589V35.1515ZM28.0246 18.5043C28.0246 21.7022 26.4922 24.5419 24.1195 26.3298L24.7258 27.1343C27.3401 25.1643 29.0319 22.0318 29.0319 18.5043H28.0246ZM26.9633 14.0658C27.6418 15.3976 28.0246 16.9055 28.0246 18.5043H29.0319C29.0319 16.7429 28.6099 15.0787 27.8609 13.6085L26.9633 14.0658ZM27.4121 14.3409H27.6191V13.3335H27.4121V14.3409ZM27.6191 14.3409C27.9111 14.3409 28.1479 14.1041 28.1479 13.812H27.1406C27.1406 13.5476 27.3549 13.3335 27.6191 13.3335V14.3409ZM28.1479 13.812C28.1479 13.5199 27.9111 13.2831 27.6191 13.2831V14.2905C27.3548 14.2905 27.1406 14.0763 27.1406 13.812H28.1479ZM27.6191 13.2831H27.3863V14.2905H27.6191V13.2831ZM23.8333 10.4711C25.1351 11.3805 26.2056 12.5983 26.9387 14.0179L27.8338 13.5557C27.0252 11.9898 25.8451 10.6476 24.4102 9.64525L23.8333 10.4711ZM24.4558 10.4351C24.5249 10.3739 24.5962 10.3115 24.6698 10.2478L24.0109 9.48584C23.9342 9.55211 23.8598 9.61723 23.7876 9.68121L24.4558 10.4351ZM24.6698 10.2478C24.9118 10.0386 24.9383 9.67279 24.729 9.43081L23.9671 10.0897C23.8124 9.91087 23.832 9.6405 24.0109 9.48584L24.6698 10.2478ZM24.7291 9.43082C24.5198 9.18881 24.154 9.1623 23.912 9.37152L24.5709 10.1335C24.3921 10.2882 24.1217 10.2686 23.967 10.0897L24.7291 9.43082ZM23.912 9.37153C23.8252 9.4466 23.741 9.52027 23.6593 9.59255L24.3269 10.347C24.4057 10.2773 24.487 10.2061 24.5709 10.1335L23.912 9.37153ZM18.2326 8.71232C20.263 8.71232 22.1476 9.32974 23.7109 10.387L24.2753 9.55253C22.5506 8.38613 20.4704 7.70494 18.2326 7.70494V8.71232ZM12.3123 10.7041C13.9565 9.45407 16.0072 8.71232 18.2326 8.71232V7.70494C15.7794 7.70494 13.516 8.52349 11.7026 9.90212L12.3123 10.7041ZM12.3293 9.91565C12.2346 9.83696 12.1373 9.75656 12.0375 9.67442L11.3974 10.4523C11.496 10.5334 11.592 10.6128 11.6856 10.6905L12.3293 9.91565ZM12.0375 9.67442C11.7905 9.47113 11.4255 9.50658 11.2222 9.75359L12 10.3937C11.8498 10.5763 11.58 10.6025 11.3974 10.4523L12.0375 9.67442ZM11.2222 9.75359C11.0189 10.0006 11.0543 10.3656 11.3014 10.5689L11.9415 9.79109C12.1241 9.94135 12.1503 10.2112 12 10.3937L11.2222 9.75359ZM11.3014 10.5689C11.3907 10.6425 11.4773 10.7143 11.5613 10.7845L12.2075 10.0117C12.1215 9.9398 12.0329 9.86628 11.9415 9.79109L11.3014 10.5689ZM9.52641 14.0179C10.1758 12.7604 11.0899 11.6612 12.1952 10.7945L11.5735 10.0018C10.3554 10.957 9.34765 12.1686 8.63134 13.5557L9.52641 14.0179ZM9.07888 13.2831H8.89237V14.2905H9.07888V13.2831ZM8.89237 13.2831C8.60029 13.2831 8.3635 13.5199 8.3635 13.812H9.37088C9.37088 14.0763 9.15664 14.2905 8.89237 14.2905V13.2831ZM8.3635 13.812C8.3635 14.1041 8.60029 14.3409 8.89237 14.3409V13.3335C9.15664 13.3335 9.37088 13.5477 9.37088 13.812H8.3635ZM8.89237 14.3409H9.05304V13.3335H8.89237V14.3409ZM8.4406 18.5043C8.4406 16.9055 8.82338 15.3976 9.50185 14.0658L8.60423 13.6085C7.85528 15.0787 7.43321 16.7429 7.43321 18.5043H8.4406ZM12.4416 26.4012C10.0144 24.6182 8.4406 21.7451 8.4406 18.5043H7.43321C7.43321 22.0792 9.17076 25.2484 11.8452 27.2131L12.4416 26.4012ZM11.6856 26.5973L11.5509 26.891L12.4667 27.3108L12.6013 27.017L11.6856 26.5973ZM11.5531 26.8863C11.4287 27.1505 11.542 27.4656 11.8063 27.5901L12.2355 26.6787C12.4746 26.7913 12.5771 27.0764 12.4645 27.3155L11.5531 26.8863ZM11.8063 27.5901C12.0704 27.7145 12.3856 27.6013 12.5101 27.337L11.5987 26.9077C11.7113 26.6686 11.9965 26.5662 12.2355 26.6787L11.8063 27.5901ZM12.5147 27.3268L12.6422 27.0398L11.7216 26.6308L11.5941 26.9178L12.5147 27.3268ZM18.2326 28.2963C16.0814 28.2963 14.0935 27.6032 12.4782 26.428L11.8856 27.2426C13.6673 28.5389 15.8614 29.3037 18.2326 29.3037V28.2963ZM24.0811 26.3586C22.4491 27.5759 20.4257 28.2963 18.2326 28.2963V29.3037C20.6501 29.3037 22.8834 28.5087 24.6834 27.1661L24.0811 26.3586ZM23.9253 26.9743L24.0439 27.2302L24.9579 26.8065L24.8392 26.5505L23.9253 26.9743ZM24.0452 27.233C24.1697 27.4972 24.4847 27.6106 24.749 27.4861L24.3198 26.5747C24.5589 26.4621 24.844 26.5647 24.9566 26.8037L24.0452 27.233ZM24.749 27.4861C25.0133 27.3616 25.1266 27.0465 25.0021 26.7822L24.0908 27.2115C23.9782 26.9724 24.0807 26.6873 24.3198 26.5747L24.749 27.4861ZM25.0027 26.7835L24.8789 26.5187L23.9664 26.9454L24.0902 27.2102L25.0027 26.7835ZM24.8789 26.5187L18.9574 13.8541L18.0448 14.2808L23.9664 26.9454L24.8789 26.5187ZM18.9568 13.8528C19.0666 14.086 18.8974 14.3377 18.6589 14.3477L18.617 13.3412C18.1547 13.3604 17.8401 13.8462 18.0454 14.2821L18.9568 13.8528ZM18.6589 14.3477C18.7107 14.3455 18.7624 14.343 18.8141 14.3401L18.7571 13.3343C18.7105 13.3369 18.6638 13.3392 18.617 13.3412L18.6589 14.3477ZM18.7856 14.3409H27.4121V13.3335H18.7856V14.3409ZM26.9388 14.0179C26.947 14.0338 26.9552 14.0498 26.9633 14.0658L27.8609 13.6085C27.852 13.5909 27.8429 13.5733 27.8338 13.5557L26.9388 14.0179ZM27.3863 13.2831H19.3702V14.2905H27.3863V13.2831ZM19.4282 14.2871C20.3579 14.1795 20.9438 14.0841 21.3463 13.8913C21.8099 13.6694 22.006 13.3304 22.2121 12.9948L21.3537 12.4675C21.1331 12.8267 21.0725 12.9056 20.9113 12.9827C20.6889 13.0892 20.2819 13.1742 19.3123 13.2864L19.4282 14.2871ZM22.2121 12.9948C22.5048 12.5184 22.9705 11.7515 24.4558 10.4351L23.7876 9.68121C22.2139 11.0759 21.6873 11.9245 21.3537 12.4675L22.2121 12.9948ZM23.7109 10.387C23.7519 10.4147 23.7927 10.4428 23.8333 10.4711L24.4102 9.64525C24.3655 9.61401 24.3205 9.5831 24.2753 9.55252L23.7109 10.387ZM23.6593 9.59255C22.1373 10.9394 21.4956 11.8012 21.0848 12.3546L21.8937 12.955C22.2773 12.4383 22.8727 11.6338 24.3269 10.347L23.6593 9.59255ZM21.0848 12.3546C20.7526 12.8021 20.6567 12.9108 20.4481 12.9915C20.177 13.0963 19.7174 13.1441 18.6107 13.1902L18.6526 14.1967C19.6991 14.1531 20.3508 14.1092 20.8115 13.9311C21.3346 13.7287 21.5909 13.363 21.8937 12.955L21.0848 12.3546ZM18.6107 13.1902C18.2405 13.2056 17.9275 13.2242 17.6607 13.2405C17.3914 13.2569 17.1767 13.2705 16.9919 13.2767L17.0261 14.2835C17.2279 14.2767 17.4592 14.2621 17.7221 14.246C17.9874 14.2298 18.2925 14.2117 18.6526 14.1967L18.6107 13.1902ZM15.9982 14.1715C16.251 14.2031 16.5661 14.2368 16.9522 14.2806L17.0658 13.2797C16.6698 13.2348 16.3683 13.2025 16.1229 13.1719L15.9982 14.1715ZM16.2423 13.202C15.9998 13.1081 15.7404 12.9055 15.1366 12.3639C14.5542 11.8416 13.7053 11.0588 12.3293 9.91565L11.6856 10.6905C13.0435 11.8186 13.8759 12.5864 14.464 13.1139C15.0305 13.622 15.4307 13.9681 15.8788 14.1415L16.2423 13.202ZM12.1952 10.7945C12.234 10.764 12.273 10.7339 12.3123 10.7041L11.7026 9.90212C11.6593 9.93502 11.6163 9.96824 11.5736 10.0018L12.1952 10.7945ZM11.5613 10.7845C12.7653 11.7913 13.4233 12.4577 13.8382 12.9051C14.0301 13.112 14.2159 13.3236 14.341 13.4556C14.4813 13.6036 14.6251 13.7406 14.8047 13.85L15.3287 12.9896C15.2641 12.9503 15.1931 12.8903 15.0722 12.7627C14.9361 12.6191 14.8145 12.4764 14.5769 12.2202C14.1329 11.7413 13.4439 11.0456 12.2075 10.0117L11.5613 10.7845ZM14.8047 13.85C15.1247 14.0449 15.4901 14.1082 15.9982 14.1715L16.1229 13.1719C15.5983 13.1065 15.4403 13.0576 15.3287 12.9896L14.8047 13.85ZM16.3058 13.224C16.2845 13.2175 16.2634 13.2101 16.2423 13.202L15.8788 14.1415C15.9213 14.1579 15.9642 14.1728 16.0076 14.1863L16.3058 13.224ZM16.9919 13.2767C16.6471 13.2885 16.4602 13.2719 16.3058 13.224L16.0076 14.1863C16.3281 14.2856 16.6532 14.2962 17.0261 14.2835L16.9919 13.2767ZM16.9522 14.2806C16.9715 14.2828 16.9909 14.285 17.0105 14.2872L17.1246 13.2863C17.1048 13.2841 17.0852 13.2819 17.0658 13.2797L16.9522 14.2806ZM17.0675 13.2831H9.07888V14.2905H17.0675V13.2831ZM9.50185 14.0658C9.50999 14.0498 9.51818 14.0339 9.52641 14.0179L8.63134 13.5557C8.62226 13.5733 8.61322 13.5909 8.60423 13.6085L9.50185 14.0658ZM9.05304 14.3409H17.6592V13.3335H9.05304V14.3409ZM17.6309 14.3401C17.4909 14.3322 17.3746 14.181 17.4485 14.0242L18.3599 14.4534C18.6043 13.9343 18.2272 13.3646 17.6874 13.3343L17.6309 14.3401ZM17.4463 14.0289L14.445 20.5769L15.3608 20.9966L18.3621 14.4486L17.4463 14.0289ZM15.2131 21.2528C15.2441 21.1869 15.2784 21.1284 15.3149 21.0766L14.4909 20.497C14.4201 20.5977 14.3568 20.7066 14.3017 20.8235L15.2131 21.2528ZM14.2629 23.3918L15.2177 21.2426L14.2971 20.8336L13.3423 22.9828L14.2629 23.3918ZM13.3447 22.9774L11.6856 26.5973L12.6013 27.017L14.2605 23.3972L13.3447 22.9774ZM12.4782 26.428C12.466 26.4191 12.4538 26.4102 12.4416 26.4012L11.8453 27.2131C11.8587 27.223 11.8721 27.2328 11.8856 27.2426L12.4782 26.428ZM12.6422 27.0398L14.2629 23.3918L13.3423 22.9828L11.7216 26.6308L12.6422 27.0398ZM14.445 20.5769L13.3447 22.9774L14.2605 23.3972L15.3608 20.9966L14.445 20.5769ZM15.3149 21.0766C15.8696 20.2881 17.1925 20.7177 17.13 21.7434L18.1355 21.8047C18.2634 19.7085 15.597 18.9247 14.4909 20.497L15.3149 21.0766ZM17.13 21.7434L16.7092 28.6387L17.7147 28.7001L18.1355 21.8047L17.13 21.7434ZM16.7092 28.6386C16.6914 28.9302 16.9134 29.181 17.2049 29.1988L17.2663 28.1933C17.53 28.2094 17.7309 28.4363 17.7147 28.7001L16.7092 28.6386ZM17.2049 29.1988C17.4965 29.2166 17.7472 28.9946 17.765 28.7032L16.7595 28.6417C16.7756 28.378 17.0024 28.1772 17.2663 28.1933L17.2049 29.1988ZM17.765 28.7031L18.6646 13.9596L17.6591 13.8982L16.7595 28.6418L17.765 28.7031ZM18.6646 13.9596C18.6509 14.1851 18.4641 14.3563 18.2437 14.3567L18.2417 13.3493C17.9359 13.3499 17.6781 13.5874 17.6591 13.8982L18.6646 13.9596ZM18.2437 14.3567C18.0215 14.3571 17.834 14.1843 17.8209 13.9581L18.8266 13.9002C18.8087 13.5883 18.5498 13.3487 18.2417 13.3493L18.2437 14.3567ZM17.8209 13.9581L18.6705 28.7013L19.6763 28.6434L18.8266 13.9002L17.8209 13.9581ZM18.6705 28.7013C18.6873 28.993 18.9374 29.2157 19.2289 29.1989L19.171 28.1932C19.4348 28.178 19.6611 28.3795 19.6763 28.6434L18.6705 28.7013ZM19.229 29.1989C19.5206 29.1821 19.7433 28.932 19.7265 28.6405L18.7208 28.6984C18.7056 28.4347 18.9071 28.2084 19.171 28.1932L19.229 29.1989ZM19.7265 28.6405L19.3251 21.6749L18.3194 21.7328L18.7208 28.6984L19.7265 28.6405ZM19.3251 21.6749C19.2614 20.5687 20.7701 20.1853 21.2422 21.1877L22.1536 20.7584C21.2093 18.7537 18.1919 19.5205 18.3194 21.7328L19.3251 21.6749ZM21.2409 21.1849L23.9253 26.9743L24.8392 26.5505L22.1548 20.7612L21.2409 21.1849ZM24.1195 26.3298C24.1068 26.3394 24.0939 26.349 24.0811 26.3586L24.6834 27.1661C24.6975 27.1556 24.7116 27.145 24.7258 27.1343L24.1195 26.3298ZM28.4751 18.5043C28.4751 24.1611 23.8894 28.7469 18.2326 28.7469V29.7542C24.4458 29.7542 29.4825 24.7175 29.4825 18.5043H28.4751ZM18.2326 8.26175C23.8894 8.26175 28.4751 12.8475 28.4751 18.5043H29.4825C29.4825 12.2911 24.4458 7.25437 18.2326 7.25437V8.26175ZM7.99002 18.5043C7.99002 12.8475 12.5758 8.26175 18.2326 8.26175V7.25437C12.0194 7.25437 6.98264 12.2911 6.98264 18.5043H7.99002ZM18.2326 28.7469C12.5758 28.7469 7.99002 24.1611 7.99002 18.5043H6.98264C6.98264 24.7175 12.0194 29.7542 18.2326 29.7542V28.7469Z" fill="#07352E"/>
<circle cx="92.4515" cy="14.0089" r="1.43396" fill="#07352E"/>
<path d="M51.6475 12.1015V14.6211H47.6882V25.23H44.7328V14.6211H40.7734V12.1015H51.6475Z" fill="#07352E"/>
<path d="M60.783 25.23C60.6441 24.7753 60.4863 24.308 60.3094 23.8281C60.1453 23.3482 59.9811 22.8683 59.8169 22.3883H54.7019C54.5377 22.8683 54.3672 23.3482 54.1904 23.8281C54.0262 24.308 53.8746 24.7753 53.7357 25.23H50.6667C51.1593 23.8155 51.6266 22.5083 52.0686 21.3085C52.5106 20.1087 52.9401 18.9783 53.3568 17.9174C53.7862 16.8566 54.203 15.8525 54.6072 14.9053C55.0239 13.9454 55.4533 13.0108 55.8954 12.1015H58.7181C59.1475 13.0108 59.5706 13.9454 59.9874 14.9053C60.4042 15.8525 60.8209 16.8566 61.2377 17.9174C61.6671 18.9783 62.1028 20.1087 62.5449 21.3085C62.9869 22.5083 63.4542 23.8155 63.9468 25.23H60.783ZM57.2404 15.0758C57.1773 15.2652 57.0826 15.5241 56.9563 15.8525C56.83 16.1809 56.6847 16.5598 56.5206 16.9892C56.3564 17.4186 56.1732 17.8922 55.9712 18.41C55.7817 18.9278 55.586 19.4709 55.3839 20.0392H59.1159C58.9139 19.4709 58.7181 18.9278 58.5287 18.41C58.3392 17.8922 58.1561 17.4186 57.9793 16.9892C57.8151 16.5598 57.6698 16.1809 57.5435 15.8525C57.4173 15.5241 57.3162 15.2652 57.2404 15.0758Z" fill="#07352E"/>
<path d="M69.4919 11.95C71.4621 11.95 72.9713 12.3036 74.0196 13.0108C75.0678 13.7055 75.592 14.7916 75.592 16.2693C75.592 17.1912 75.3773 17.9427 74.9479 18.5237C74.5311 19.092 73.9249 19.5404 73.1292 19.8687C73.3944 20.1971 73.6723 20.576 73.9627 21.0054C74.2532 21.4222 74.5374 21.8642 74.8152 22.3315C75.1057 22.7862 75.3836 23.2661 75.6488 23.7713C75.914 24.2638 76.1603 24.7501 76.3876 25.23H73.0724C72.8324 24.8006 72.5861 24.3649 72.3335 23.9228C72.0936 23.4808 71.841 23.0514 71.5757 22.6346C71.3232 22.2178 71.0706 21.8263 70.818 21.4601C70.5654 21.0812 70.3128 20.7402 70.0602 20.4371H68.6015V25.23H65.6461V12.2909C66.2902 12.1647 66.9533 12.0762 67.6353 12.0257C68.3299 11.9752 68.9488 11.95 69.4919 11.95ZM69.6624 14.4696C69.4477 14.4696 69.2519 14.4759 69.0751 14.4885C68.9109 14.5011 68.753 14.5138 68.6015 14.5264V18.0879H69.435C70.5464 18.0879 71.3421 17.949 71.822 17.6712C72.302 17.3933 72.5419 16.9197 72.5419 16.2503C72.5419 15.6062 72.2956 15.1516 71.8031 14.8863C71.3232 14.6085 70.6096 14.4696 69.6624 14.4696Z" fill="#07352E"/>
<path d="M86.0302 25.23C85.765 24.8006 85.4492 24.3396 85.083 23.8471C84.7294 23.3419 84.3378 22.843 83.9084 22.3504C83.4916 21.8453 83.0559 21.3653 82.6013 20.9107C82.1466 20.4434 81.6919 20.0329 81.2373 19.6793V25.23H78.2819V12.1015H81.2373V17.0649C82.0077 16.2567 82.7781 15.4168 83.5485 14.5453C84.3315 13.6613 85.0577 12.8467 85.7271 12.1015H89.2318C88.3351 13.1624 87.4321 14.1854 86.5228 15.1705C85.6261 16.1556 84.6788 17.147 83.6811 18.1448C84.7294 19.0162 85.7397 20.0519 86.7122 21.2517C87.6973 22.4515 88.6382 23.7776 89.5349 25.23H86.0302Z" fill="#07352E"/>
<path d="M93.8844 25.23H91.0617V16.2693H93.8844V25.23Z" fill="#07352E"/>
<path d="M105.518 25.23C104.671 23.7271 103.756 22.2431 102.771 20.7781C101.785 19.313 100.737 17.9301 99.6258 16.6292V25.23H96.7083V12.1015H99.1143C99.5311 12.5183 99.992 13.0298 100.497 13.636C101.002 14.2422 101.514 14.8927 102.032 15.5873C102.562 16.2693 103.086 16.9829 103.604 17.728C104.122 18.4605 104.608 19.1678 105.063 19.8498V12.1015H107.999V25.23H105.518Z" fill="#07352E"/>
</svg>
