<svg width="108" height="36" viewBox="0 0 108 36" fill="none" xmlns="http://www.w3.org/2000/svg">
<path fill-rule="evenodd" clip-rule="evenodd" d="M18.155 33.907C26.9402 33.907 34.062 26.7852 34.062 18C34.062 9.21475 26.9402 2.09292 18.155 2.09292C9.36978 2.09292 2.24795 9.21475 2.24795 18C2.24795 26.7852 9.36978 33.907 18.155 33.907ZM18.155 35.155C27.6294 35.155 35.31 27.4744 35.31 18C35.31 8.52553 27.6294 0.844971 18.155 0.844971C8.68056 0.844971 1 8.52553 1 18C1 27.4744 8.68056 35.155 18.155 35.155ZM24.4225 26.2317C26.9161 24.3528 28.5283 21.3666 28.5283 18.0038C28.5283 16.3239 28.1259 14.738 27.4124 13.3372H27.6191C27.633 13.3372 27.6442 13.3259 27.6442 13.312C27.6442 13.2981 27.633 13.2868 27.6191 13.2868H27.3865C26.6157 11.794 25.4904 10.5139 24.122 9.55789C24.1926 9.49538 24.2653 9.4317 24.3403 9.36684C24.3719 9.33954 24.3753 9.29183 24.348 9.26027C24.3208 9.2287 24.273 9.22524 24.2415 9.25253C24.1562 9.32627 24.0736 9.39858 23.9934 9.46948C22.3494 8.35753 20.3668 7.70815 18.2326 7.70815C15.8932 7.70815 13.736 8.48839 12.0071 9.80284C11.9131 9.72472 11.8166 9.6449 11.7175 9.56334C11.6852 9.53682 11.6376 9.54144 11.6111 9.57366C11.5846 9.60588 11.5892 9.6535 11.6214 9.68001C11.7117 9.7543 11.7992 9.8269 11.8841 9.89786C10.7224 10.809 9.76143 11.9644 9.07862 13.2868H8.89237C8.87846 13.2868 8.86719 13.2981 8.86719 13.312C8.86719 13.3259 8.87846 13.3372 8.89237 13.3372H9.05279C8.33923 14.738 7.9369 16.3239 7.9369 18.0038C7.9369 21.4117 9.59267 24.4329 12.1436 26.3068L12.0088 26.6009C12.0029 26.6135 12.0083 26.6285 12.0209 26.6344C12.0335 26.6403 12.0485 26.6349 12.0544 26.6223L12.1821 26.3349C13.8806 27.5706 15.9714 28.2995 18.2326 28.2995C20.5378 28.2995 22.6661 27.5419 24.3821 26.262L24.5009 26.5183C24.5068 26.5309 24.5218 26.5363 24.5344 26.5304C24.547 26.5245 24.5524 26.5095 24.5465 26.4969L24.4225 26.2317ZM24.4225 26.2317L18.5011 13.5674C18.4534 13.4661 18.526 13.3491 18.638 13.3444C18.6872 13.3424 18.7364 13.3399 18.7856 13.3372H27.4124C27.4038 13.3203 27.3952 13.3036 27.3865 13.2868H19.3702C21.2695 13.0669 21.3562 12.9259 21.7829 12.2312C22.0961 11.7214 22.5923 10.9136 24.122 9.55789C24.0794 9.52811 24.0365 9.49864 23.9934 9.46948C22.5051 10.7865 21.8865 11.6197 21.4893 12.1548C20.8542 13.0103 20.7849 13.1037 18.6317 13.1934C17.9013 13.2239 17.3955 13.267 17.009 13.2801C16.618 13.2358 16.3096 13.2028 16.0606 13.1717C15.37 12.9045 14.7414 12.0742 12.0071 9.80284C11.9659 9.83421 11.9248 9.86588 11.8841 9.89786C14.3249 11.9387 14.5782 12.6223 15.0667 12.9198C15.2825 13.0512 15.5442 13.1073 16.0606 13.1717C16.0924 13.184 16.1244 13.1952 16.1567 13.2052C16.3941 13.2787 16.6501 13.2924 17.009 13.2801C17.0283 13.2823 17.0478 13.2845 17.0675 13.2868H9.07862C9.06997 13.3036 9.06136 13.3203 9.05279 13.3372H17.6592C17.859 13.3484 17.9895 13.5577 17.9042 13.7388L14.9029 20.2868C14.8493 20.363 14.8005 20.4467 14.7574 20.5381L13.8026 22.6873L12.1436 26.3068C12.1564 26.3162 12.1692 26.3256 12.1821 26.3349L13.8026 22.6873L14.9029 20.2868C15.7333 19.1064 17.728 19.7131 17.6327 21.274L17.212 28.1694C17.2111 28.1833 17.2217 28.1952 17.2356 28.196C17.2495 28.1969 17.2614 28.1863 17.2623 28.1724L18.1619 13.4289C18.1645 13.3862 18.2 13.3531 18.2427 13.353C18.2857 13.3529 18.3213 13.3863 18.3238 13.4292L19.1734 28.1724C19.1742 28.1862 19.1861 28.1968 19.2 28.196C19.2139 28.1952 19.2245 28.1833 19.2237 28.1695L18.8223 21.2039C18.7267 19.5446 20.9897 18.9695 21.6979 20.4731L24.3821 26.262C24.3956 26.2519 24.409 26.2418 24.4225 26.2317ZM18.2326 28.7501C24.1676 28.7501 28.9788 23.9388 28.9788 18.0038C28.9788 12.0688 24.1676 7.25757 18.2326 7.25757C12.2976 7.25757 7.48633 12.0688 7.48633 18.0038C7.48633 23.9388 12.2976 28.7501 18.2326 28.7501Z" fill="#FFF9E9"/>
<path d="M24.3403 9.36684L24.6698 9.74784L24.6698 9.74784L24.3403 9.36684ZM24.348 9.26027L23.967 9.58972L23.9671 9.58973L24.348 9.26027ZM24.2415 9.25253L23.912 8.87152L23.912 8.87153L24.2415 9.25253ZM11.7175 9.56334L11.3974 9.95225L11.3974 9.95226L11.7175 9.56334ZM11.6214 9.68001L11.9415 9.29109L11.9415 9.29109L11.6214 9.68001ZM12.0088 26.6009L12.4645 26.8155L12.4667 26.8107L12.0088 26.6009ZM12.0209 26.6344L11.8063 27.0901L11.8063 27.0901L12.0209 26.6344ZM12.0544 26.6223L12.5102 26.837L12.5147 26.8268L12.0544 26.6223ZM24.5009 26.5183L24.0439 26.7302L24.0452 26.733L24.5009 26.5183ZM24.5465 26.4969L24.0902 26.7102L24.0908 26.7115L24.5465 26.4969ZM18.5011 13.5674L18.9574 13.3541L18.9568 13.3528L18.5011 13.5674ZM18.638 13.3444L18.6589 13.8477L18.6589 13.8477L18.638 13.3444ZM18.7856 13.3372V12.8335H18.7714L18.7571 12.8343L18.7856 13.3372ZM19.3702 13.2868L19.3123 12.7864L19.3702 13.7905V13.2868ZM21.7829 12.2312L21.3537 11.9675L21.3537 11.9675L21.7829 12.2312ZM21.4893 12.1548L21.8937 12.455L21.4893 12.1548ZM18.6317 13.1934L18.6107 12.6902L18.6317 13.1934ZM15.0667 12.9198L14.8047 13.35L14.8047 13.35L15.0667 12.9198ZM16.1567 13.2052L16.0076 13.6863L16.0076 13.6863L16.1567 13.2052ZM17.0675 13.2868V13.7905L17.1246 12.7863L17.0675 13.2868ZM17.6592 13.3372L17.6874 12.8343L17.6733 12.8335H17.6592V13.3372ZM17.9042 13.7388L17.4485 13.5241L17.4463 13.5289L17.9042 13.7388ZM14.7574 20.5381L14.3016 20.3235L14.2971 20.3336L14.7574 20.5381ZM17.6327 21.274L18.1355 21.3047L17.6327 21.274ZM17.212 28.1694L17.7147 28.2001L17.7147 28.2001L17.212 28.1694ZM17.2623 28.1724L17.765 28.2032L17.765 28.2031L17.2623 28.1724ZM18.1619 13.4289L18.6646 13.4596V13.4596L18.1619 13.4289ZM18.2427 13.353L18.2417 12.8493H18.2417L18.2427 13.353ZM18.3238 13.4292L17.8209 13.4581V13.4581L18.3238 13.4292ZM19.1734 28.1724L19.6763 28.1434L19.6763 28.1434L19.1734 28.1724ZM19.2 28.196L19.2289 28.6989L19.229 28.6989L19.2 28.196ZM19.2237 28.1695L19.7265 28.1405L19.7265 28.1405L19.2237 28.1695ZM18.8223 21.2039L18.3194 21.2328L18.8223 21.2039ZM21.6979 20.4731L22.1549 20.2612L22.1536 20.2584L21.6979 20.4731ZM33.5584 18C33.5584 26.507 26.662 33.4033 18.155 33.4033V34.4107C27.2184 34.4107 34.5657 27.0634 34.5657 18H33.5584ZM18.155 2.59661C26.662 2.59661 33.5584 9.49293 33.5584 18H34.5657C34.5657 8.93657 27.2184 1.58923 18.155 1.58923V2.59661ZM2.75164 18C2.75164 9.49293 9.64796 2.59661 18.155 2.59661V1.58923C9.0916 1.58923 1.74426 8.93657 1.74426 18H2.75164ZM18.155 33.4033C9.64796 33.4033 2.75164 26.507 2.75164 18H1.74426C1.74426 27.0634 9.0916 34.4107 18.155 34.4107V33.4033ZM34.8063 18C34.8063 27.1962 27.3513 34.6513 18.155 34.6513V35.6587C27.9076 35.6587 35.8137 27.7526 35.8137 18H34.8063ZM18.155 1.34866C27.3513 1.34866 34.8063 8.80371 34.8063 18H35.8137C35.8137 8.24735 27.9076 0.34128 18.155 0.34128V1.34866ZM1.50369 18C1.50369 8.80371 8.95874 1.34866 18.155 1.34866V0.34128C8.40237 0.34128 0.496309 8.24735 0.496309 18H1.50369ZM18.155 34.6513C8.95874 34.6513 1.50369 27.1962 1.50369 18H0.496309C0.496309 27.7526 8.40237 35.6587 18.155 35.6587V34.6513ZM28.0246 18.0038C28.0246 21.2017 26.4921 24.0416 24.1194 25.8294L24.7256 26.634C27.3401 24.664 29.0319 21.5314 29.0319 18.0038H28.0246ZM26.9635 13.5658C27.6419 14.8975 28.0246 16.4052 28.0246 18.0038H29.0319C29.0319 16.2426 28.61 14.5786 27.8612 13.1085L26.9635 13.5658ZM27.4124 13.8409H27.6191V12.8335H27.4124V13.8409ZM27.6191 13.8409C27.9111 13.8409 28.1479 13.6041 28.1479 13.312H27.1406C27.1406 13.0476 27.3549 12.8335 27.6191 12.8335V13.8409ZM28.1479 13.312C28.1479 13.0199 27.9111 12.7831 27.6191 12.7831V13.7905C27.3548 13.7905 27.1406 13.5763 27.1406 13.312H28.1479ZM27.6191 12.7831H27.3865V13.7905H27.6191V12.7831ZM23.8336 9.9708C25.1354 10.8803 26.2059 12.0981 26.939 13.5179L27.8341 13.0557C27.0255 11.4898 25.8455 10.1475 24.4105 9.14498L23.8336 9.9708ZM24.4561 9.93485C24.5251 9.87372 24.5963 9.81139 24.6698 9.74784L24.0109 8.98583C23.9343 9.05202 23.8601 9.11704 23.788 9.18093L24.4561 9.93485ZM24.6698 9.74784C24.9118 9.53859 24.9383 9.17279 24.729 8.93081L23.9671 9.58973C23.8124 9.41087 23.832 9.1405 24.0109 8.98584L24.6698 9.74784ZM24.7291 8.93082C24.5198 8.68881 24.154 8.6623 23.912 8.87152L24.5709 9.63355C24.3921 9.78818 24.1217 9.7686 23.967 9.58972L24.7291 8.93082ZM23.912 8.87153C23.8253 8.9465 23.7412 9.02007 23.6596 9.09226L24.3272 9.8467C24.4059 9.77709 24.4871 9.70604 24.5709 9.63354L23.912 8.87153ZM18.2326 8.21184C20.2631 8.21184 22.1479 8.82933 23.7112 9.88671L24.2756 9.05226C22.5508 7.88573 20.4705 7.20445 18.2326 7.20445V8.21184ZM12.312 10.2038C13.9563 8.95368 16.0071 8.21184 18.2326 8.21184V7.20445C15.7793 7.20445 13.5158 8.0231 11.7023 9.40188L12.312 10.2038ZM12.329 9.4154C12.2344 9.33679 12.1372 9.25647 12.0375 9.17442L11.3974 9.95226C11.4959 10.0333 11.5918 10.1127 11.6853 10.1903L12.329 9.4154ZM12.0375 9.17442C11.7905 8.97113 11.4255 9.00658 11.2222 9.25359L12 9.89374C11.8498 10.0763 11.58 10.1025 11.3974 9.95225L12.0375 9.17442ZM11.2222 9.25359C11.0189 9.5006 11.0543 9.86564 11.3014 10.0689L11.9415 9.29109C12.1241 9.44135 12.1503 9.71117 12 9.89374L11.2222 9.25359ZM11.3014 10.0689C11.3906 10.1424 11.4771 10.2142 11.561 10.2843L12.2072 9.51144C12.1213 9.43963 12.0328 9.36619 11.9415 9.29109L11.3014 10.0689ZM9.52617 13.5179C10.1755 12.2603 11.0896 11.1611 12.1949 10.2942L11.5732 9.50152C10.3551 10.4569 9.34734 11.6685 8.63107 13.0557L9.52617 13.5179ZM9.07862 12.7831H8.89237V13.7905H9.07862V12.7831ZM8.89237 12.7831C8.60029 12.7831 8.3635 13.0199 8.3635 13.312H9.37088C9.37088 13.5763 9.15664 13.7905 8.89237 13.7905V12.7831ZM8.3635 13.312C8.3635 13.6041 8.60029 13.8409 8.89237 13.8409V12.8335C9.15664 12.8335 9.37088 13.0477 9.37088 13.312H8.3635ZM8.89237 13.8409H9.05279V12.8335H8.89237V13.8409ZM8.4406 18.0038C8.4406 16.4052 8.82329 14.8975 9.50161 13.5658L8.60397 13.1085C7.85518 14.5786 7.43321 16.2426 7.43321 18.0038H8.4406ZM12.4418 25.9009C10.0145 24.1178 8.4406 21.2446 8.4406 18.0038H7.43321C7.43321 21.5788 9.17084 24.748 11.8454 26.7127L12.4418 25.9009ZM11.6857 26.0969L11.5509 26.391L12.4667 26.8107L12.6015 26.5167L11.6857 26.0969ZM11.5531 26.3863C11.4287 26.6505 11.542 26.9656 11.8063 27.0901L12.2355 26.1787C12.4746 26.2913 12.5771 26.5764 12.4645 26.8155L11.5531 26.3863ZM11.8063 27.0901C12.0704 27.2145 12.3856 27.1013 12.5101 26.837L11.5987 26.4077C11.7113 26.1686 11.9965 26.0662 12.2355 26.1787L11.8063 27.0901ZM12.5147 26.8268L12.6424 26.5394L11.7218 26.1304L11.5941 26.4178L12.5147 26.8268ZM18.2326 27.7958C16.0814 27.7958 14.0937 27.1027 12.4784 25.9276L11.8858 26.7422C13.6675 28.0384 15.8614 28.8032 18.2326 28.8032V27.7958ZM24.0809 25.8583C22.449 27.0755 20.4256 27.7958 18.2326 27.7958V28.8032C20.65 28.8032 22.8833 28.0083 24.6832 26.6658L24.0809 25.8583ZM23.9251 26.4739L24.0439 26.7302L24.9579 26.3065L24.839 26.0501L23.9251 26.4739ZM24.0452 26.733C24.1697 26.9972 24.4847 27.1106 24.749 26.9861L24.3198 26.0747C24.5589 25.9621 24.844 26.0647 24.9566 26.3037L24.0452 26.733ZM24.749 26.9861C25.0133 26.8616 25.1266 26.5465 25.0021 26.2822L24.0908 26.7115C23.9782 26.4724 24.0807 26.1873 24.3198 26.0747L24.749 26.9861ZM25.0027 26.2835L24.8788 26.0184L23.9662 26.4451L24.0902 26.7102L25.0027 26.2835ZM24.8788 26.0184L18.9574 13.3541L18.0448 13.7808L23.9662 26.4451L24.8788 26.0184ZM18.9568 13.3528C19.0666 13.586 18.8974 13.8377 18.6589 13.8477L18.617 12.8412C18.1547 12.8604 17.8401 13.3462 18.0454 13.7821L18.9568 13.3528ZM18.6589 13.8477C18.7107 13.8455 18.7624 13.843 18.8141 13.8401L18.7571 12.8343C18.7105 12.8369 18.6638 12.8392 18.617 12.8412L18.6589 13.8477ZM18.7856 13.8409H27.4124V12.8335H18.7856V13.8409ZM26.939 13.5179C26.9472 13.5338 26.9554 13.5498 26.9635 13.5658L27.8612 13.1085C27.8522 13.0909 27.8432 13.0733 27.8341 13.0557L26.939 13.5179ZM27.3865 12.7831H19.3702V13.7905H27.3865V12.7831ZM19.4282 13.7871C20.3579 13.6795 20.9438 13.5841 21.3463 13.3913C21.8099 13.1694 22.006 12.8304 22.2121 12.4948L21.3537 11.9675C21.1331 12.3267 21.0725 12.4056 20.9113 12.4827C20.6889 12.5892 20.2819 12.6742 19.3123 12.7864L19.4282 13.7871ZM22.2121 12.4948C22.5048 12.0184 22.9706 11.2514 24.4561 9.93485L23.788 9.18093C22.214 10.5758 21.6873 11.4245 21.3537 11.9675L22.2121 12.4948ZM23.7112 9.88671C23.7522 9.91444 23.793 9.94247 23.8336 9.9708L24.4105 9.14499C24.3658 9.11374 24.3208 9.08283 24.2756 9.05226L23.7112 9.88671ZM23.6596 9.09227C22.1374 10.4392 21.4957 11.3012 21.0848 11.8546L21.8937 12.455C22.2774 11.9382 22.8727 11.1337 24.3272 9.8467L23.6596 9.09227ZM21.0848 11.8546C20.7526 12.3021 20.6567 12.4108 20.4481 12.4915C20.177 12.5963 19.7174 12.6441 18.6107 12.6902L18.6526 13.6967C19.6991 13.6531 20.3508 13.6092 20.8115 13.4311C21.3346 13.2287 21.5909 12.863 21.8937 12.455L21.0848 11.8546ZM18.6107 12.6902C18.2405 12.7056 17.9275 12.7242 17.6607 12.7405C17.3914 12.7569 17.1767 12.7705 16.9919 12.7767L17.0261 13.7835C17.2279 13.7767 17.4592 13.7621 17.7221 13.746C17.9874 13.7298 18.2925 13.7117 18.6526 13.6967L18.6107 12.6902ZM15.9982 13.6715C16.251 13.7031 16.5661 13.7368 16.9522 13.7806L17.0658 12.7797C16.6698 12.7348 16.3683 12.7025 16.1229 12.6719L15.9982 13.6715ZM16.2423 12.702C15.9998 12.6081 15.7404 12.4055 15.1365 11.8639C14.5541 11.3415 13.7052 10.5586 12.329 9.4154L11.6853 10.1903C13.0433 11.3185 13.8758 12.0863 14.4639 12.6138C15.0305 13.122 15.4307 13.4681 15.8788 13.6415L16.2423 12.702ZM12.1949 10.2942C12.2337 10.2638 12.2727 10.2336 12.312 10.2038L11.7023 9.40188C11.659 9.43478 11.616 9.46799 11.5732 9.50152L12.1949 10.2942ZM11.561 10.2843C12.7652 11.2911 13.4232 11.9576 13.8382 12.4051C14.03 12.612 14.2159 12.8236 14.341 12.9556C14.4812 13.1036 14.6251 13.2406 14.8047 13.35L15.3287 12.4896C15.2641 12.4503 15.1931 12.3903 15.0722 12.2627C14.9361 12.119 14.8145 11.9764 14.5769 11.7201C14.1328 11.2412 13.4438 10.5454 12.2072 9.51144L11.561 10.2843ZM14.8047 13.35C15.1247 13.5449 15.4901 13.6082 15.9982 13.6715L16.1229 12.6719C15.5983 12.6065 15.4403 12.5576 15.3287 12.4896L14.8047 13.35ZM16.3058 12.724C16.2845 12.7175 16.2634 12.7101 16.2423 12.702L15.8788 13.6415C15.9213 13.6579 15.9642 13.6728 16.0076 13.6863L16.3058 12.724ZM16.9919 12.7767C16.6471 12.7885 16.4602 12.7719 16.3058 12.724L16.0076 13.6863C16.3281 13.7856 16.6532 13.7962 17.0261 13.7835L16.9919 12.7767ZM16.9522 13.7806C16.9715 13.7828 16.9909 13.785 17.0105 13.7872L17.1246 12.7863C17.1048 12.7841 17.0852 12.7819 17.0658 12.7797L16.9522 13.7806ZM17.0675 12.7831H9.07862V13.7905H17.0675V12.7831ZM9.50161 13.5658C9.50976 13.5498 9.51795 13.5338 9.52617 13.5179L8.63107 13.0557C8.62198 13.0733 8.61295 13.0909 8.60397 13.1085L9.50161 13.5658ZM9.05279 13.8409H17.6592V12.8335H9.05279V13.8409ZM17.6309 13.8401C17.4909 13.8322 17.3746 13.681 17.4485 13.5242L18.3599 13.9534C18.6043 13.4343 18.2272 12.8646 17.6874 12.8343L17.6309 13.8401ZM17.4463 13.5289L14.445 20.0769L15.3608 20.4966L18.3621 13.9486L17.4463 13.5289ZM15.2131 20.7528C15.2441 20.6869 15.2784 20.6284 15.3149 20.5766L14.4909 19.997C14.4201 20.0977 14.3568 20.2066 14.3017 20.3235L15.2131 20.7528ZM14.2629 22.8918L15.2177 20.7426L14.2971 20.3336L13.3423 22.4828L14.2629 22.8918ZM13.3447 22.4774L11.6857 26.0969L12.6015 26.5167L14.2605 22.8972L13.3447 22.4774ZM12.4784 25.9276C12.4662 25.9187 12.454 25.9098 12.4418 25.9009L11.8454 26.7127C11.8588 26.7226 11.8723 26.7324 11.8858 26.7422L12.4784 25.9276ZM12.6424 26.5394L14.2629 22.8918L13.3423 22.4828L11.7218 26.1304L12.6424 26.5394ZM14.445 20.0769L13.3447 22.4774L14.2605 22.8972L15.3608 20.4966L14.445 20.0769ZM15.3149 20.5766C15.8696 19.7881 17.1925 20.2177 17.13 21.2434L18.1355 21.3047C18.2634 19.2085 15.597 18.4247 14.4909 19.997L15.3149 20.5766ZM17.13 21.2434L16.7092 28.1387L17.7147 28.2001L18.1355 21.3047L17.13 21.2434ZM16.7092 28.1386C16.6914 28.4302 16.9134 28.681 17.2049 28.6988L17.2663 27.6933C17.53 27.7094 17.7309 27.9363 17.7147 28.2001L16.7092 28.1386ZM17.2049 28.6988C17.4965 28.7166 17.7472 28.4946 17.765 28.2032L16.7595 28.1417C16.7756 27.878 17.0024 27.6772 17.2663 27.6933L17.2049 28.6988ZM17.765 28.2031L18.6646 13.4596L17.6591 13.3982L16.7595 28.1418L17.765 28.2031ZM18.6646 13.4596C18.6509 13.6851 18.4641 13.8563 18.2437 13.8567L18.2417 12.8493C17.9359 12.8499 17.6781 13.0874 17.6591 13.3982L18.6646 13.4596ZM18.2437 13.8567C18.0215 13.8571 17.834 13.6843 17.8209 13.4581L18.8266 13.4002C18.8087 13.0883 18.5498 12.8487 18.2417 12.8493L18.2437 13.8567ZM17.8209 13.4581L18.6705 28.2013L19.6763 28.1434L18.8266 13.4002L17.8209 13.4581ZM18.6705 28.2013C18.6873 28.493 18.9374 28.7157 19.2289 28.6989L19.171 27.6932C19.4348 27.678 19.6611 27.8795 19.6763 28.1434L18.6705 28.2013ZM19.229 28.6989C19.5206 28.6821 19.7433 28.432 19.7265 28.1405L18.7208 28.1984C18.7056 27.9347 18.9071 27.7084 19.171 27.6932L19.229 28.6989ZM19.7265 28.1405L19.3251 21.1749L18.3194 21.2328L18.7208 28.1984L19.7265 28.1405ZM19.3251 21.1749C19.2614 20.0687 20.7701 19.6853 21.2422 20.6877L22.1536 20.2584C21.2093 18.2537 18.1919 19.0205 18.3194 21.2328L19.3251 21.1749ZM21.2409 20.6849L23.9251 26.4739L24.839 26.0501L22.1548 20.2612L21.2409 20.6849ZM24.1194 25.8294C24.1066 25.8391 24.0938 25.8487 24.0809 25.8583L24.6832 26.6658C24.6974 26.6552 24.7115 26.6446 24.7256 26.634L24.1194 25.8294ZM28.4751 18.0038C28.4751 23.6606 23.8894 28.2464 18.2326 28.2464V29.2538C24.4458 29.2538 29.4825 24.217 29.4825 18.0038H28.4751ZM18.2326 7.76126C23.8894 7.76126 28.4751 12.347 28.4751 18.0038H29.4825C29.4825 11.7906 24.4458 6.75388 18.2326 6.75388V7.76126ZM7.99002 18.0038C7.99002 12.347 12.5758 7.76126 18.2326 7.76126V6.75388C12.0194 6.75388 6.98264 11.7906 6.98264 18.0038H7.99002ZM18.2326 28.2464C12.5758 28.2464 7.99002 23.6606 7.99002 18.0038H6.98264C6.98264 24.217 12.0194 29.2538 18.2326 29.2538V28.2464Z" fill="#FFF9E9"/>
<circle cx="92.4508" cy="13.5087" r="1.43396" fill="#FFF9E9"/>
<path d="M51.6485 11.6013V14.1209H47.6891V24.7297H44.7338V14.1209H40.7744V11.6013H51.6485Z" fill="#FFF9E9"/>
<path d="M60.784 24.7297C60.6451 24.2751 60.4872 23.8078 60.3104 23.3279C60.1462 22.8479 59.982 22.368 59.8179 21.8881H54.7029C54.5387 22.368 54.3682 22.8479 54.1914 23.3279C54.0272 23.8078 53.8756 24.2751 53.7367 24.7297H50.6677C51.1603 23.3152 51.6275 22.0081 52.0696 20.8083C52.5116 19.6084 52.941 18.4781 53.3578 17.4172C53.7872 16.3563 54.204 15.3523 54.6081 14.405C55.0249 13.4452 55.4543 12.5106 55.8964 11.6013H58.7191C59.1485 12.5106 59.5716 13.4452 59.9884 14.405C60.4051 15.3523 60.8219 16.3563 61.2387 17.4172C61.6681 18.4781 62.1038 19.6084 62.5459 20.8083C62.9879 22.0081 63.4552 23.3152 63.9477 24.7297H60.784ZM57.2414 14.5755C57.1783 14.765 57.0835 15.0239 56.9572 15.3523C56.831 15.6806 56.6857 16.0595 56.5215 16.4889C56.3573 16.9183 56.1742 17.3919 55.9721 17.9098C55.7827 18.4276 55.5869 18.9706 55.3849 19.539H59.1169C58.9148 18.9706 58.7191 18.4276 58.5296 17.9098C58.3402 17.3919 58.1571 16.9183 57.9802 16.4889C57.8161 16.0595 57.6708 15.6806 57.5445 15.3523C57.4182 15.0239 57.3172 14.765 57.2414 14.5755Z" fill="#FFF9E9"/>
<path d="M69.4928 11.4497C71.4631 11.4497 72.9723 11.8033 74.0206 12.5106C75.0688 13.2052 75.5929 14.2914 75.5929 15.769C75.5929 16.691 75.3782 17.4425 74.9488 18.0234C74.5321 18.5918 73.9258 19.0401 73.1302 19.3685C73.3954 19.6968 73.6732 20.0757 73.9637 20.5051C74.2542 20.9219 74.5384 21.364 74.8162 21.8313C75.1067 22.2859 75.3846 22.7658 75.6498 23.271C75.915 23.7636 76.1613 24.2498 76.3886 24.7297H73.0733C72.8334 24.3003 72.5871 23.8646 72.3345 23.4226C72.0945 22.9805 71.8419 22.5511 71.5767 22.1344C71.3241 21.7176 71.0715 21.3261 70.8189 20.9598C70.5664 20.5809 70.3138 20.2399 70.0612 19.9368H68.6024V24.7297H65.6471V11.7907C66.2912 11.6644 66.9543 11.576 67.6363 11.5255C68.3309 11.475 68.9498 11.4497 69.4928 11.4497ZM69.6633 13.9693C69.4486 13.9693 69.2529 13.9756 69.0761 13.9883C68.9119 14.0009 68.754 14.0135 68.6024 14.0261V17.5877H69.436C70.5474 17.5877 71.3431 17.4488 71.823 17.1709C72.3029 16.8931 72.5429 16.4195 72.5429 15.7501C72.5429 15.106 72.2966 14.6513 71.8041 14.3861C71.3241 14.1082 70.6106 13.9693 69.6633 13.9693Z" fill="#FFF9E9"/>
<path d="M86.0312 24.7297C85.766 24.3003 85.4502 23.8394 85.084 23.3468C84.7303 22.8416 84.3388 22.3428 83.9094 21.8502C83.4926 21.345 83.0569 20.8651 82.6022 20.4104C82.1476 19.9431 81.6929 19.5327 81.2382 19.179V24.7297H78.2829V11.6013H81.2382V16.5647C82.0086 15.7564 82.779 14.9165 83.5495 14.0451C84.3325 13.161 85.0587 12.3464 85.7281 11.6013H89.2328C88.3361 12.6622 87.4331 13.6851 86.5237 14.6703C85.627 15.6554 84.6798 16.6468 83.6821 17.6445C84.7303 18.516 85.7407 19.5516 86.7132 20.7514C87.6983 21.9512 88.6392 23.2773 89.5359 24.7297H86.0312Z" fill="#FFF9E9"/>
<path d="M93.8854 24.7297H91.0627V15.769H93.8854V24.7297Z" fill="#FFF9E9"/>
<path d="M105.518 24.7297C104.672 23.2268 103.757 21.7428 102.772 20.2778C101.786 18.8128 100.738 17.4298 99.6268 16.129V24.7297H96.7093V11.6013H99.1153C99.532 12.018 99.993 12.5295 100.498 13.1358C101.003 13.742 101.515 14.3924 102.033 15.087C102.563 15.769 103.087 16.4826 103.605 17.2278C104.123 17.9603 104.609 18.6675 105.064 19.3495V11.6013H108V24.7297H105.518Z" fill="#FFF9E9"/>
</svg>
