<svg width="32" height="33" viewBox="0 0 32 33" fill="none" xmlns="http://www.w3.org/2000/svg">
<rect y="0.5" width="32" height="32" rx="16" fill="#FFF5F0"/>
<path d="M8 17.5C8 16.948 8.448 16.5 9 16.5H11C11.552 16.5 12 16.948 12 17.5V23.5C12 24.052 11.552 24.5 11 24.5H9C8.73478 24.5 8.48043 24.3946 8.29289 24.2071C8.10536 24.0196 8 23.7652 8 23.5V17.5ZM14 13.5C14 12.948 14.448 12.5 15 12.5H17C17.552 12.5 18 12.948 18 13.5V23.5C18 24.052 17.552 24.5 17 24.5H15C14.7348 24.5 14.4804 24.3946 14.2929 24.2071C14.1054 24.0196 14 23.7652 14 23.5V13.5ZM20 9.5C20 8.948 20.448 8.5 21 8.5H23C23.552 8.5 24 8.948 24 9.5V23.5C24 24.052 23.552 24.5 23 24.5H21C20.7348 24.5 20.4804 24.3946 20.2929 24.2071C20.1054 24.0196 20 23.7652 20 23.5V9.5Z" stroke="#FF884C" stroke-opacity="0.7" stroke-width="1.5" stroke-linecap="round" stroke-linejoin="round"/>
</svg>
