<svg  viewBox="0 0 32 33" fill="none" xmlns="http://www.w3.org/2000/svg">
<rect y="0.5" width="32" height="32" rx="16" fill="#E7EFFD" fill-opacity="0.65"/>
<path d="M14.75 7.5H12.875C12.3777 7.5 11.9008 7.69754 11.5492 8.04917C11.1975 8.40081 11 8.87772 11 9.375V23.125C11 23.6223 11.1975 24.0992 11.5492 24.4508C11.9008 24.8025 12.3777 25 12.875 25H19.125C19.6223 25 20.0992 24.8025 20.4508 24.4508C20.8025 24.0992 21 23.6223 21 23.125V9.375C21 8.87772 20.8025 8.40081 20.4508 8.04917C20.0992 7.69754 19.6223 7.5 19.125 7.5H17.25M14.75 7.5V8.75H17.25V7.5M14.75 7.5H17.25M14.75 23.125H17.25" stroke="#30B9FD" stroke-width="1.5" stroke-linecap="round" stroke-linejoin="round"/>
</svg>
